<svg id="Layer_1" data-name="Layer 1" xmlns="http://www.w3.org/2000/svg" viewBox="0 0 216.25 234.28"><defs><style>.cls-1,.cls-2,.cls-3,.cls-5,.cls-6,.cls-7,.cls-8,.cls-9{fill:none;stroke-miterlimit:10;}.cls-1,.cls-6,.cls-7,.cls-8,.cls-9{stroke:#000;}.cls-1{stroke-width:0.25px;}.cls-2{stroke:red;}.cls-2,.cls-3{stroke-width:0.75px;}.cls-3{stroke:#39b54a;}.cls-4{fill:#39b54a;}.cls-5{stroke:#666;}.cls-7,.cls-8,.cls-9{stroke-width:0.5px;}.cls-8{stroke-dasharray:6 6;}.cls-9{stroke-dasharray:6 6;}.cls-10{fill:#009245;}.cls-11{fill:red;}</style></defs><title>Bike-right-turn-conflicts</title><rect class="cls-1" x="0.13" y="18.16" width="216" height="216"/><line class="cls-2" x1="121.62" y1="229.66" x2="121.62" y2="171.16"/><line class="cls-3" x1="139.62" y1="226.66" x2="139.62" y2="55.06"/><path class="cls-4" d="M154.1,64.53a.38.38,0,0,1-.52-.12l-3.08-4.84-3.08,4.84a.38.38,0,0,1-.52.12.38.38,0,0,1-.11-.52l3.39-5.34a.39.39,0,0,1,.64,0L154.21,64a.36.36,0,0,1,.06.2A.39.39,0,0,1,154.1,64.53Z" transform="translate(-10.88 -4.34)"/><path d="M66.87,5.13a12.22,12.22,0,0,1,2.34-.2,3.88,3.88,0,0,1,2.73.77,2.36,2.36,0,0,1,.74,1.79A2.48,2.48,0,0,1,70.9,9.9v0a2.39,2.39,0,0,1,1.39,1.91A14.84,14.84,0,0,0,73,14.44H71.75a13.08,13.08,0,0,1-.63-2.26c-.28-1.3-.78-1.79-1.89-1.83H68.08v4.09H66.87Zm1.21,4.3h1.25c1.3,0,2.13-.72,2.13-1.8s-.88-1.75-2.17-1.76A4.91,4.91,0,0,0,68.08,6Z" transform="translate(-10.88 -4.34)"/><path d="M75.87,5.76a.77.77,0,0,1-1.53,0A.75.75,0,0,1,75.11,5,.74.74,0,0,1,75.87,5.76ZM74.5,14.44V7.66h1.23v6.78Z" transform="translate(-10.88 -4.34)"/><path d="M83.61,7.66c0,.49,0,1,0,1.86v3.94a3.91,3.91,0,0,1-1,3.1,3.62,3.62,0,0,1-2.46.81,4.43,4.43,0,0,1-2.26-.56l.31-.94a3.84,3.84,0,0,0,2,.53c1.26,0,2.18-.66,2.18-2.37v-.75h0a2.4,2.4,0,0,1-2.15,1.13,3,3,0,0,1-2.89-3.3c0-2.3,1.5-3.6,3-3.6a2.25,2.25,0,0,1,2.12,1.17h0l0-1Zm-1.27,2.68a1.91,1.91,0,0,0-.07-.56,1.79,1.79,0,0,0-1.73-1.31c-1.17,0-2,1-2,2.57,0,1.33.67,2.43,2,2.43a1.8,1.8,0,0,0,1.71-1.26,2.16,2.16,0,0,0,.1-.66Z" transform="translate(-10.88 -4.34)"/><path d="M85.6,4.49h1.23V8.72h0a2.21,2.21,0,0,1,.88-.86A2.53,2.53,0,0,1,89,7.51c.91,0,2.37.56,2.37,2.9v4H90.13V10.55c0-1.1-.4-2-1.56-2a1.79,1.79,0,0,0-1.66,1.23,1.51,1.51,0,0,0-.08.59v4.09H85.6Z" transform="translate(-10.88 -4.34)"/><path d="M94.79,5.71v2h1.77V8.6H94.79v3.65c0,.85.24,1.32.93,1.32a2.82,2.82,0,0,0,.71-.08l.06.92a3,3,0,0,1-1.09.17,1.68,1.68,0,0,1-1.33-.52,2.49,2.49,0,0,1-.48-1.76V8.6h-1V7.66h1V6Z" transform="translate(-10.88 -4.34)"/><path d="M100.73,10.2v.91H97.27V10.2Z" transform="translate(-10.88 -4.34)"/><path d="M103.66,5.71v2h1.76V8.6h-1.76v3.65c0,.85.24,1.32.92,1.32a3,3,0,0,0,.72-.08l0,.92a3,3,0,0,1-1.09.17,1.69,1.69,0,0,1-1.33-.52,2.49,2.49,0,0,1-.48-1.76V8.6h-1V7.66h1V6Z" transform="translate(-10.88 -4.34)"/><path d="M112.48,12.59c0,.7,0,1.32.06,1.85h-1.1l-.07-1.11h0a2.53,2.53,0,0,1-2.24,1.26c-1.06,0-2.34-.58-2.34-3v-4H108v3.75c0,1.29.39,2.16,1.51,2.16a1.76,1.76,0,0,0,1.62-1.12,1.61,1.61,0,0,0,.12-.63V7.66h1.23Z" transform="translate(-10.88 -4.34)"/><path d="M114.52,9.78c0-.8,0-1.49-.06-2.12h1.08l0,1.33h.06a2,2,0,0,1,1.88-1.48,1.25,1.25,0,0,1,.35,0V8.71a1.76,1.76,0,0,0-.42,0,1.74,1.74,0,0,0-1.66,1.58,4.83,4.83,0,0,0-.05.58v3.61h-1.22Z" transform="translate(-10.88 -4.34)"/><path d="M119.15,9.5c0-.71,0-1.28-.05-1.84h1.09l.07,1.12h0a2.5,2.5,0,0,1,2.24-1.27c.94,0,2.4.56,2.4,2.88v4h-1.24V10.53c0-1.09-.4-2-1.57-2a1.74,1.74,0,0,0-1.65,1.26,1.91,1.91,0,0,0-.08.57v4.08h-1.24Z" transform="translate(-10.88 -4.34)"/><path d="M134.72,14.19a4.47,4.47,0,0,1-1.94.39,3.22,3.22,0,0,1-3.38-3.46A3.44,3.44,0,0,1,133,7.52a4.07,4.07,0,0,1,1.71.35l-.28,1A2.81,2.81,0,0,0,133,8.5a2.34,2.34,0,0,0-2.39,2.56A2.33,2.33,0,0,0,133,13.6a3.4,3.4,0,0,0,1.51-.34Z" transform="translate(-10.88 -4.34)"/><path d="M142.21,11a3.31,3.31,0,0,1-3.37,3.6,3.22,3.22,0,0,1-3.25-3.48A3.31,3.31,0,0,1,139,7.51,3.2,3.2,0,0,1,142.21,11Zm-5.37.07c0,1.49.85,2.61,2.06,2.61S141,12.56,141,11c0-1.15-.58-2.61-2-2.61S136.84,9.78,136.84,11.06Z" transform="translate(-10.88 -4.34)"/><path d="M143.77,9.5c0-.71,0-1.28-.06-1.84h1.09l.07,1.12h0a2.5,2.5,0,0,1,2.24-1.27c.94,0,2.4.56,2.4,2.88v4H148.3V10.53c0-1.09-.4-2-1.56-2a1.75,1.75,0,0,0-1.66,1.26,1.91,1.91,0,0,0-.08.57v4.08h-1.23Z" transform="translate(-10.88 -4.34)"/><path d="M151.66,14.44V8.6h-.95V7.66h.95V7.37a3,3,0,0,1,1-2.34,3.21,3.21,0,0,1,2.17-.69,4.38,4.38,0,0,1,2,.45v9.65H155.6v-9a2.06,2.06,0,0,0-1-.19c-1.29,0-1.71.94-1.71,2v.34h1.58V8.6h-1.58v5.84Z" transform="translate(-10.88 -4.34)"/><path d="M160.23,5.76a.72.72,0,0,1-.78.75.73.73,0,0,1-.75-.75.76.76,0,0,1,.77-.78A.73.73,0,0,1,160.23,5.76Zm-1.37,8.68V7.66h1.23v6.78Z" transform="translate(-10.88 -4.34)"/><path d="M167,14.19a4.57,4.57,0,0,1-1.95.39,3.22,3.22,0,0,1-3.38-3.46,3.45,3.45,0,0,1,3.65-3.6,4.05,4.05,0,0,1,1.7.35l-.28,1a2.8,2.8,0,0,0-1.42-.32,2.35,2.35,0,0,0-2.4,2.56,2.33,2.33,0,0,0,2.35,2.54,3.45,3.45,0,0,0,1.52-.34Z" transform="translate(-10.88 -4.34)"/><path d="M170.07,5.71v2h1.77V8.6h-1.77v3.65c0,.85.24,1.32.93,1.32a2.82,2.82,0,0,0,.71-.08l.06.92a3,3,0,0,1-1.1.17,1.71,1.71,0,0,1-1.33-.52,2.49,2.49,0,0,1-.47-1.76V8.6h-1.05V7.66h1.05V6Z" transform="translate(-10.88 -4.34)"/><line class="cls-5" x1="144.12" y1="162.16" x2="216.12" y2="162.16"/><path class="cls-6" d="M119,166.5" transform="translate(-10.88 -4.34)"/><line class="cls-5" x1="0.12" y1="162.16" x2="72.12" y2="162.16"/><line class="cls-7" x1="144.12" y1="126.16" x2="147.12" y2="126.16"/><line class="cls-8" x1="153.12" y1="126.16" x2="210.12" y2="126.16"/><line class="cls-7" x1="213.12" y1="126.16" x2="216.12" y2="126.16"/><line class="cls-7" x1="0.12" y1="126.16" x2="3.12" y2="126.16"/><line class="cls-9" x1="9.12" y1="126.16" x2="66.12" y2="126.16"/><line class="cls-7" x1="69.12" y1="126.16" x2="72.12" y2="126.16"/><line class="cls-5" x1="144.12" y1="90.16" x2="216.12" y2="90.16"/><path class="cls-6" d="M119,94.5" transform="translate(-10.88 -4.34)"/><polyline class="cls-5" points="0.13 90.16 54.13 90.16 72.13 90.16"/><line class="cls-5" x1="144.12" y1="162.16" x2="144.12" y2="234.16"/><path class="cls-6" d="M155,130.5" transform="translate(-10.88 -4.34)"/><line class="cls-5" x1="144.12" y1="18.16" x2="144.12" y2="90.16"/><line class="cls-7" x1="108.12" y1="162.16" x2="108.12" y2="165.16"/><line class="cls-8" x1="108.12" y1="171.16" x2="108.12" y2="228.16"/><line class="cls-7" x1="108.12" y1="231.16" x2="108.12" y2="234.16"/><line class="cls-7" x1="108.12" y1="18.16" x2="108.12" y2="21.16"/><line class="cls-9" x1="108.12" y1="27.16" x2="108.12" y2="84.16"/><line class="cls-7" x1="108.12" y1="87.16" x2="108.12" y2="90.16"/><path class="cls-5" d="M83,238.5v-72" transform="translate(-10.88 -4.34)"/><path class="cls-6" d="M83,130.5" transform="translate(-10.88 -4.34)"/><line class="cls-5" x1="72.13" y1="18.16" x2="72.13" y2="90.16"/><line class="cls-5" x1="72.12" y1="162.16" x2="72.12" y2="126.16"/><line class="cls-5" x1="144.12" y1="162.16" x2="108.12" y2="162.16"/><line class="cls-5" x1="144.12" y1="90.16" x2="144.12" y2="126.16"/><line class="cls-5" x1="72.12" y1="90.16" x2="108.12" y2="90.16"/><line class="cls-1" x1="135.12" y1="18.16" x2="135.12" y2="90.16"/><line class="cls-1" x1="216.12" y1="99.16" x2="144.12" y2="99.16"/><line class="cls-1" x1="216.12" y1="153.16" x2="144.12" y2="153.16"/><line class="cls-1" x1="72.12" y1="99.16" x2="0.12" y2="99.16"/><line class="cls-1" x1="72.12" y1="153.16" x2="0.12" y2="153.16"/><line class="cls-1" x1="135.12" y1="234.16" x2="135.12" y2="162.16"/><line class="cls-1" x1="81.12" y1="234.16" x2="81.12" y2="162.16"/><path d="M164.38,61.59a9.08,9.08,0,0,1,1.75-.16,3.09,3.09,0,0,1,2,.54,1.57,1.57,0,0,1,.61,1.31,1.75,1.75,0,0,1-1.25,1.63v0a1.92,1.92,0,0,1,1.53,1.86,2,2,0,0,1-.63,1.49,3.74,3.74,0,0,1-2.56.69,10.26,10.26,0,0,1-1.49-.09Zm1,3h.87c1,0,1.61-.53,1.61-1.25,0-.87-.66-1.21-1.63-1.21a3.58,3.58,0,0,0-.85.07Zm0,3.55a5.61,5.61,0,0,0,.8,0c1,0,1.91-.36,1.91-1.44s-.87-1.43-1.92-1.43h-.79Z" transform="translate(-10.88 -4.34)"/><path d="M171.39,62.08a.57.57,0,0,1-.61.6.58.58,0,0,1-.59-.6.59.59,0,0,1,.61-.6A.57.57,0,0,1,171.39,62.08Zm-1.08,6.82V63.58h1V68.9Z" transform="translate(-10.88 -4.34)"/><path d="M176.68,68.71a3.6,3.6,0,0,1-1.53.3,2.53,2.53,0,0,1-2.65-2.71,2.71,2.71,0,0,1,2.86-2.83,3.17,3.17,0,0,1,1.35.28l-.23.74a2.25,2.25,0,0,0-1.12-.25,1.84,1.84,0,0,0-1.88,2,1.82,1.82,0,0,0,1.85,2,2.8,2.8,0,0,0,1.19-.26Z" transform="translate(-10.88 -4.34)"/><path d="M178.37,63.58l1.16,3.15c.12.35.25.77.34,1.09h0c.1-.32.21-.73.34-1.12l1.06-3.12h1l-1.45,3.8A8.09,8.09,0,0,1,179,70.71a2.73,2.73,0,0,1-1.19.63l-.24-.82a2.57,2.57,0,0,0,.84-.47,2.85,2.85,0,0,0,.82-1.08.79.79,0,0,0,.07-.23.86.86,0,0,0-.06-.25l-2-4.91Z" transform="translate(-10.88 -4.34)"/><path d="M186.88,68.71a3.64,3.64,0,0,1-1.53.3,2.52,2.52,0,0,1-2.65-2.71,2.71,2.71,0,0,1,2.86-2.83,3.09,3.09,0,0,1,1.34.28l-.22.74a2.25,2.25,0,0,0-1.12-.25,1.84,1.84,0,0,0-1.88,2,1.82,1.82,0,0,0,1.85,2,2.71,2.71,0,0,0,1.18-.26Z" transform="translate(-10.88 -4.34)"/><path d="M188,61.09h1V68.9h-1Z" transform="translate(-10.88 -4.34)"/><path d="M191.14,66.42A1.71,1.71,0,0,0,193,68.27a3.46,3.46,0,0,0,1.48-.28l.16.69a4.19,4.19,0,0,1-1.77.33,2.47,2.47,0,0,1-2.62-2.68,2.58,2.58,0,0,1,2.5-2.87,2.26,2.26,0,0,1,2.2,2.51,4,4,0,0,1,0,.45Zm2.84-.69a1.38,1.38,0,0,0-1.34-1.58,1.59,1.59,0,0,0-1.48,1.58Z" transform="translate(-10.88 -4.34)"/><path d="M203,63.58c0,.38,0,.81,0,1.46v3.09a3.07,3.07,0,0,1-.76,2.44,2.81,2.81,0,0,1-1.93.63,3.39,3.39,0,0,1-1.77-.44l.24-.73a3,3,0,0,0,1.56.41c1,0,1.72-.51,1.72-1.85V68h0a1.9,1.9,0,0,1-1.7.89,2.38,2.38,0,0,1-2.27-2.59,2.56,2.56,0,0,1,2.4-2.83,1.76,1.76,0,0,1,1.66.92h0l0-.8Zm-1,2.1a1.23,1.23,0,0,0-.06-.44,1.4,1.4,0,0,0-1.35-1c-.93,0-1.59.78-1.59,2,0,1,.53,1.92,1.58,1.92a1.43,1.43,0,0,0,1.34-1,1.93,1.93,0,0,0,.08-.52Z" transform="translate(-10.88 -4.34)"/><path d="M207.55,68.9l-.08-.67h0a2,2,0,0,1-1.63.8,1.52,1.52,0,0,1-1.63-1.53c0-1.29,1.14-2,3.2-2v-.11a1.1,1.1,0,0,0-1.21-1.24,2.66,2.66,0,0,0-1.38.4l-.23-.64a3.37,3.37,0,0,1,1.75-.47c1.63,0,2,1.11,2,2.18v2a7,7,0,0,0,.09,1.27Zm-.15-2.71c-1.05,0-2.25.16-2.25,1.2a.86.86,0,0,0,.91.92,1.34,1.34,0,0,0,1.29-.89,1.12,1.12,0,0,0,.05-.31Z" transform="translate(-10.88 -4.34)"/><path d="M209.9,65.32c0-.68,0-1.23,0-1.74h.86l.05.91h0a2.09,2.09,0,0,1,1.89-1c1.29,0,2.26,1.09,2.26,2.71,0,1.91-1.17,2.86-2.42,2.86a1.86,1.86,0,0,1-1.64-.84h0v2.89h-1Zm1,1.42a2.34,2.34,0,0,0,0,.39,1.5,1.5,0,0,0,1.45,1.14c1,0,1.62-.84,1.62-2.06,0-1.07-.56-2-1.59-2a1.54,1.54,0,0,0-1.46,1.2,1.67,1.67,0,0,0-.06.39Z" transform="translate(-10.88 -4.34)"/><path d="M167.3,82.1l-.08-.67h0a2,2,0,0,1-1.63.8,1.52,1.52,0,0,1-1.63-1.53c0-1.29,1.15-2,3.2-2v-.11a1.1,1.1,0,0,0-1.21-1.24,2.66,2.66,0,0,0-1.38.4l-.22-.64a3.37,3.37,0,0,1,1.75-.47c1.63,0,2,1.11,2,2.18v2a7,7,0,0,0,.09,1.27Zm-.14-2.71c-1.06,0-2.26.16-2.26,1.2a.86.86,0,0,0,.91.92,1.32,1.32,0,0,0,1.29-.89,1.13,1.13,0,0,0,.06-.31Z" transform="translate(-10.88 -4.34)"/><path d="M173.45,81.91a3.64,3.64,0,0,1-1.53.3,2.52,2.52,0,0,1-2.65-2.71,2.71,2.71,0,0,1,2.86-2.83,3.26,3.26,0,0,1,1.34.27l-.22.75a2.25,2.25,0,0,0-1.12-.25,1.84,1.84,0,0,0-1.88,2,1.82,1.82,0,0,0,1.84,2,2.76,2.76,0,0,0,1.19-.26Z" transform="translate(-10.88 -4.34)"/><path d="M178.31,81.91a3.64,3.64,0,0,1-1.53.3,2.52,2.52,0,0,1-2.65-2.71A2.71,2.71,0,0,1,177,76.67a3.26,3.26,0,0,1,1.34.27l-.22.75a2.25,2.25,0,0,0-1.12-.25,1.84,1.84,0,0,0-1.88,2,1.82,1.82,0,0,0,1.85,2,2.71,2.71,0,0,0,1.18-.26Z" transform="translate(-10.88 -4.34)"/><path d="M179.91,79.62a1.71,1.71,0,0,0,1.83,1.85,3.38,3.38,0,0,0,1.47-.28l.17.69a4.19,4.19,0,0,1-1.77.33A2.47,2.47,0,0,1,179,79.53a2.58,2.58,0,0,1,2.5-2.87,2.26,2.26,0,0,1,2.2,2.51,4,4,0,0,1,0,.45Zm2.84-.7a1.38,1.38,0,0,0-1.34-1.57,1.59,1.59,0,0,0-1.48,1.57Z" transform="translate(-10.88 -4.34)"/><path d="M184.89,78.52c0-.68,0-1.23,0-1.74h.87l0,.91h0a2.08,2.08,0,0,1,1.89-1c1.29,0,2.26,1.09,2.26,2.71,0,1.91-1.17,2.86-2.42,2.86a1.86,1.86,0,0,1-1.64-.84h0v2.89h-1Zm1,1.42a2.3,2.3,0,0,0,0,.39,1.5,1.5,0,0,0,1.45,1.14c1,0,1.62-.84,1.62-2.06,0-1.07-.56-2-1.59-2a1.54,1.54,0,0,0-1.46,1.2,1.68,1.68,0,0,0-.07.39Z" transform="translate(-10.88 -4.34)"/><path d="M192.31,75.25v1.53h1.39v.74h-1.39v2.87c0,.66.19,1,.73,1a2.36,2.36,0,0,0,.56-.06l0,.72a2.25,2.25,0,0,1-.85.13,1.35,1.35,0,0,1-1-.4,2,2,0,0,1-.37-1.39v-2.9h-.83v-.74h.83V75.5Z" transform="translate(-10.88 -4.34)"/><path d="M197.73,82.1l-.07-.67h0a2,2,0,0,1-1.63.8,1.52,1.52,0,0,1-1.63-1.53c0-1.29,1.14-2,3.2-2v-.11a1.1,1.1,0,0,0-1.21-1.24,2.69,2.69,0,0,0-1.39.4l-.22-.64a3.37,3.37,0,0,1,1.75-.47c1.63,0,2,1.11,2,2.18v2a7,7,0,0,0,.09,1.27Zm-.14-2.71c-1.05,0-2.25.16-2.25,1.2a.85.85,0,0,0,.91.92,1.34,1.34,0,0,0,1.29-.89,1.12,1.12,0,0,0,.05-.31Z" transform="translate(-10.88 -4.34)"/><path d="M200.09,78.22c0-.55,0-1-.05-1.44h.86l.06.88h0a1.94,1.94,0,0,1,1.76-1c.74,0,1.88.44,1.88,2.26V82.1h-1V79c0-.86-.32-1.58-1.23-1.58a1.38,1.38,0,0,0-1.3,1,1.53,1.53,0,0,0-.06.45v3.2h-1Z" transform="translate(-10.88 -4.34)"/><path d="M210,81.91a3.68,3.68,0,0,1-1.53.3,2.52,2.52,0,0,1-2.65-2.71,2.71,2.71,0,0,1,2.86-2.83,3.26,3.26,0,0,1,1.34.27l-.22.75a2.25,2.25,0,0,0-1.12-.25,1.84,1.84,0,0,0-1.88,2,1.82,1.82,0,0,0,1.84,2,2.73,2.73,0,0,0,1.19-.26Z" transform="translate(-10.88 -4.34)"/><path d="M211.59,79.62a1.71,1.71,0,0,0,1.83,1.85,3.38,3.38,0,0,0,1.47-.28l.17.69a4.23,4.23,0,0,1-1.77.33,2.47,2.47,0,0,1-2.62-2.68,2.58,2.58,0,0,1,2.5-2.87,2.26,2.26,0,0,1,2.2,2.51,3.52,3.52,0,0,1,0,.45Zm2.84-.7a1.38,1.38,0,0,0-1.34-1.57,1.61,1.61,0,0,0-1.49,1.57Z" transform="translate(-10.88 -4.34)"/><line class="cls-7" x1="142.62" y1="139.66" x2="178.62" y2="80.66"/><path class="cls-10" d="M159.38,224.38a9.08,9.08,0,0,1-.16-1.75,3.06,3.06,0,0,1,.54-2,1.56,1.56,0,0,1,1.31-.62,1.75,1.75,0,0,1,1.63,1.25h0a1.91,1.91,0,0,1,1.86-1.52,2,2,0,0,1,1.49.62,3.77,3.77,0,0,1,.69,2.57,10.1,10.1,0,0,1-.09,1.48Zm3-1v-.87c0-1-.53-1.6-1.25-1.6s-1.21.66-1.21,1.63a3.48,3.48,0,0,0,.07.84Zm3.55,0a5.52,5.52,0,0,0,0-.8c0-1-.36-1.9-1.44-1.9s-1.43.87-1.43,1.91v.79Z" transform="translate(-10.88 -4.34)"/><path class="cls-10" d="M159.87,217.37a.6.6,0,1,1,0,1.2.58.58,0,0,1-.6-.6A.57.57,0,0,1,159.87,217.37Zm6.82,1.08h-5.32v-1h5.32Z" transform="translate(-10.88 -4.34)"/><path class="cls-10" d="M166.5,212.08a3.64,3.64,0,0,1,.3,1.53,2.52,2.52,0,0,1-2.71,2.65,2.71,2.71,0,0,1-2.83-2.86,3.09,3.09,0,0,1,.28-1.34l.74.22a2.25,2.25,0,0,0-.25,1.12,1.84,1.84,0,0,0,2,1.88,1.82,1.82,0,0,0,2-1.84,2.73,2.73,0,0,0-.26-1.19Z" transform="translate(-10.88 -4.34)"/><path class="cls-10" d="M161.37,210.4l3.15-1.17c.35-.12.77-.25,1.09-.34v0c-.32-.1-.73-.21-1.12-.34l-3.12-1.06v-1l3.8,1.45a8.19,8.19,0,0,1,3.33,1.83,2.63,2.63,0,0,1,.63,1.19l-.82.24a2.71,2.71,0,0,0-.47-.85,3,3,0,0,0-1.08-.81.62.62,0,0,0-.23-.08.68.68,0,0,0-.25.07l-4.91,2Z" transform="translate(-10.88 -4.34)"/><path class="cls-10" d="M166.5,201.89a3.6,3.6,0,0,1,.3,1.53,2.53,2.53,0,0,1-2.71,2.65,2.71,2.71,0,0,1-2.83-2.86,3.14,3.14,0,0,1,.28-1.35l.74.22a2.3,2.3,0,0,0-.25,1.13,2,2,0,0,0,4,0,2.8,2.8,0,0,0-.26-1.19Z" transform="translate(-10.88 -4.34)"/><path class="cls-10" d="M158.88,200.75v-1h7.81v1Z" transform="translate(-10.88 -4.34)"/><path class="cls-10" d="M164.21,197.62a1.71,1.71,0,0,0,1.85-1.83,3.38,3.38,0,0,0-.28-1.47l.69-.17a4.23,4.23,0,0,1,.33,1.77,2.47,2.47,0,0,1-2.68,2.62,2.58,2.58,0,0,1-2.87-2.49,2.26,2.26,0,0,1,2.51-2.21,3.52,3.52,0,0,1,.45,0Zm-.7-2.84a1.38,1.38,0,0,0-1.57,1.34,1.61,1.61,0,0,0,1.57,1.49Z" transform="translate(-10.88 -4.34)"/><line class="cls-2" x1="153.12" y1="139.66" x2="202.22" y2="140.13"/><path class="cls-11" d="M207.94,148a.38.38,0,0,1,.12-.52l4.87-3-4.81-3.13a.37.37,0,0,1-.11-.52.38.38,0,0,1,.52-.11l5.3,3.45a.37.37,0,0,1,.17.32.35.35,0,0,1-.18.31l-5.36,3.35a.42.42,0,0,1-.21.06A.38.38,0,0,1,207.94,148Z" transform="translate(-10.88 -4.34)"/><path class="cls-2" d="M132.5,175.5A31.48,31.48,0,0,1,164,144" transform="translate(-10.88 -4.34)"/><path class="cls-11" d="M127.75,227.46l2.33.77v1l-7.42-2.51v-1.16l7.42-2.53v1l-2.33.79ZM127,225l-2.14.73c-.48.16-.92.27-1.35.38v0c.44.11.89.23,1.34.37l2.15.73Z" transform="translate(-10.88 -4.34)"/><path class="cls-11" d="M128.63,217.64c.55,0,1,0,1.45,0v.86l-.87,0v0a2,2,0,0,1,1,1.76c0,.84-.46,1.84-2.33,1.84h-3.12v-1h3c1,0,1.7-.31,1.7-1.19a1.38,1.38,0,0,0-.88-1.27,1.35,1.35,0,0,0-.5-.09h-3.27v-1Z" transform="translate(-10.88 -4.34)"/><path class="cls-11" d="M123.22,214.87h1.53v-1.39h.74v1.39h2.87c.66,0,1-.19,1-.73a2.26,2.26,0,0,0-.07-.56l.73,0a2.54,2.54,0,0,1,.13.86,1.31,1.31,0,0,1-.41,1,1.93,1.93,0,0,1-1.38.38h-2.91v.82h-.74v-.82h-1.27Z" transform="translate(-10.88 -4.34)"/><path class="cls-11" d="M127.37,207.64a2.61,2.61,0,0,1,2.83,2.65,2.53,2.53,0,0,1-2.74,2.56,2.61,2.61,0,0,1-2.83-2.64A2.53,2.53,0,0,1,127.37,207.64Zm.06,4.23c1.16,0,2-.67,2-1.62s-.87-1.62-2.06-1.62c-.91,0-2,.45-2,1.6S126.42,211.87,127.43,211.87Z" transform="translate(-10.88 -4.34)"/><path class="cls-11" d="M126.2,206.42c-.55,0-1,0-1.45.05v-.85l.86,0v0a1.83,1.83,0,0,1-1-1.67,1.57,1.57,0,0,1,1.07-1.51v0a2,2,0,0,1-.69-.59,1.78,1.78,0,0,1-.38-1.18c0-.7.46-1.75,2.31-1.75h3.14v1h-3c-1,0-1.64.37-1.64,1.15a1.27,1.27,0,0,0,.89,1.15,1.68,1.68,0,0,0,.48.07h3.29v1h-3.19c-.85,0-1.47.37-1.47,1.11a1.32,1.32,0,0,0,1,1.2,1.51,1.51,0,0,0,.48.08h3.21v.94Z" transform="translate(-10.88 -4.34)"/><path class="cls-11" d="M127.37,192.43a2.6,2.6,0,0,1,2.83,2.65,2.53,2.53,0,0,1-2.74,2.55,2.6,2.6,0,0,1-2.83-2.64A2.52,2.52,0,0,1,127.37,192.43Zm.06,4.22c1.16,0,2-.67,2-1.61s-.87-1.62-2.06-1.62c-.91,0-2,.45-2,1.6S126.42,196.65,127.43,196.65Z" transform="translate(-10.88 -4.34)"/><path class="cls-11" d="M130.08,191.25c-.36,0-.9,0-1.38,0h-6.43v-1h3.34v0a2,2,0,0,1-1-1.81c0-1.33,1.1-2.26,2.72-2.25,1.9,0,2.85,1.2,2.85,2.39a1.9,1.9,0,0,1-1,1.78v0l.88,0Zm-2.14-1a2,2,0,0,0,.36,0,1.5,1.5,0,0,0,1.13-1.45c0-1-.83-1.62-2.05-1.62-1.06,0-2,.55-2,1.58a1.55,1.55,0,0,0,1.19,1.48,2.07,2.07,0,0,0,.4.05Z" transform="translate(-10.88 -4.34)"/><path class="cls-11" d="M123.26,183.87a.6.6,0,0,1,0,1.2.59.59,0,0,1-.61-.6A.58.58,0,0,1,123.26,183.87Zm6.82,1.08h-5.33v-1h5.33Z" transform="translate(-10.88 -4.34)"/><path class="cls-11" d="M122.27,182.38v-1h7.81v1Z" transform="translate(-10.88 -4.34)"/><path class="cls-11" d="M127.59,179.24a1.71,1.71,0,0,0,1.85-1.82,3.57,3.57,0,0,0-.27-1.48l.69-.16a4.36,4.36,0,0,1,.33,1.77,2.48,2.48,0,0,1-2.69,2.62,2.59,2.59,0,0,1-2.87-2.5,2.26,2.26,0,0,1,2.51-2.2,4,4,0,0,1,.45,0Zm-.69-2.84a1.38,1.38,0,0,0-1.57,1.35,1.61,1.61,0,0,0,1.57,1.48Z" transform="translate(-10.88 -4.34)"/><circle class="cls-7" cx="140.12" cy="143.16" r="4.5"/></svg>