<svg id="Layer_1" data-name="Layer 1" xmlns="http://www.w3.org/2000/svg" viewBox="0 0 217.14 234.81"><defs><style>.cls-1,.cls-2{fill:none;stroke:#000;stroke-miterlimit:10;}.cls-1{stroke-width:0.5px;}.cls-2{stroke-width:0.75px;}</style></defs><title>Bike-right-turn-capacity-function</title><path d="M26.83,14.13a5.93,5.93,0,0,1-2.49.45A4.42,4.42,0,0,1,19.67,9.8a4.71,4.71,0,0,1,4.93-5,5,5,0,0,1,2.24.43l-.29,1a4.5,4.5,0,0,0-1.91-.39C22.43,5.87,21,7.28,21,9.76c0,2.31,1.33,3.8,3.63,3.8a5,5,0,0,0,2-.39Z" transform="translate(-9.86 -4.34)"/><path d="M32,14.44l-.1-.85h0a2.54,2.54,0,0,1-2.08,1,1.93,1.93,0,0,1-2.07-1.94c0-1.64,1.46-2.54,4.08-2.52V10a1.4,1.4,0,0,0-1.54-1.57,3.39,3.39,0,0,0-1.77.5l-.28-.81a4.15,4.15,0,0,1,2.23-.6c2.07,0,2.57,1.41,2.57,2.77v2.53a9,9,0,0,0,.12,1.63ZM31.78,11c-1.34,0-2.87.21-2.87,1.53a1.09,1.09,0,0,0,1.17,1.17,1.67,1.67,0,0,0,1.63-1.13,1.11,1.11,0,0,0,.07-.39Z" transform="translate(-9.86 -4.34)"/><path d="M35,9.87c0-.87,0-1.57-.06-2.21H36l.06,1.16h0a2.66,2.66,0,0,1,2.4-1.31c1.64,0,2.88,1.38,2.88,3.44,0,2.44-1.49,3.64-3.09,3.64a2.37,2.37,0,0,1-2.08-1.06h0v3.68H35Zm1.22,1.81a2.54,2.54,0,0,0,.06.5,1.89,1.89,0,0,0,1.84,1.45c1.31,0,2.06-1.07,2.06-2.62,0-1.36-.71-2.52-2-2.52A2,2,0,0,0,36.26,10a2.17,2.17,0,0,0-.08.51Z" transform="translate(-9.86 -4.34)"/><path d="M46.68,14.44l-.1-.85h0a2.53,2.53,0,0,1-2.07,1,1.93,1.93,0,0,1-2.08-1.94c0-1.64,1.46-2.54,4.08-2.52V10a1.4,1.4,0,0,0-1.54-1.57,3.39,3.39,0,0,0-1.77.5l-.28-.81a4.2,4.2,0,0,1,2.23-.6c2.07,0,2.58,1.41,2.58,2.77v2.53a10,10,0,0,0,.11,1.63ZM46.5,11c-1.35,0-2.87.21-2.87,1.53a1.08,1.08,0,0,0,1.16,1.17,1.7,1.7,0,0,0,1.64-1.13,1.4,1.4,0,0,0,.07-.39Z" transform="translate(-9.86 -4.34)"/><path d="M54.51,14.19a4.53,4.53,0,0,1-1.95.39,3.22,3.22,0,0,1-3.38-3.46,3.45,3.45,0,0,1,3.65-3.6,4.14,4.14,0,0,1,1.71.35l-.29,1a2.8,2.8,0,0,0-1.42-.32,2.35,2.35,0,0,0-2.4,2.56,2.33,2.33,0,0,0,2.35,2.54,3.45,3.45,0,0,0,1.52-.34Z" transform="translate(-9.86 -4.34)"/><path d="M57.32,5.76a.72.72,0,0,1-.78.75.73.73,0,0,1-.75-.75A.75.75,0,0,1,56.56,5,.73.73,0,0,1,57.32,5.76ZM56,14.44V7.66h1.23v6.78Z" transform="translate(-9.86 -4.34)"/><path d="M60.71,5.71v2h1.76V8.6H60.71v3.65c0,.85.24,1.32.92,1.32a3,3,0,0,0,.72-.08l0,.92a3,3,0,0,1-1.09.17A1.68,1.68,0,0,1,60,14.06a2.49,2.49,0,0,1-.48-1.76V8.6h-1V7.66h1V6Z" transform="translate(-9.86 -4.34)"/><path d="M64.43,7.66l1.48,4c.16.44.33,1,.44,1.38h0c.12-.4.26-.92.43-1.41l1.35-4h1.3l-1.85,4.83c-.88,2.33-1.48,3.52-2.33,4.25a3.39,3.39,0,0,1-1.51.8l-.31-1a3.2,3.2,0,0,0,1.08-.6,3.77,3.77,0,0,0,1-1.38,1,1,0,0,0,.1-.29,1,1,0,0,0-.09-.32L63.08,7.66Z" transform="translate(-9.86 -4.34)"/><path d="M73.54,9.78c0-.8,0-1.49-.05-2.12h1.08l0,1.33h0a2,2,0,0,1,1.88-1.48,1.25,1.25,0,0,1,.35,0V8.71a1.76,1.76,0,0,0-.42,0,1.73,1.73,0,0,0-1.65,1.58,3.34,3.34,0,0,0-.06.58v3.61H73.54Z" transform="translate(-9.86 -4.34)"/><path d="M78.67,11.27A2.17,2.17,0,0,0,81,13.63a4.54,4.54,0,0,0,1.88-.35l.21.88a5.41,5.41,0,0,1-2.25.42,3.15,3.15,0,0,1-3.34-3.42c0-2,1.21-3.65,3.18-3.65,2.21,0,2.8,1.94,2.8,3.19a5.55,5.55,0,0,1,0,.57Zm3.61-.88a1.75,1.75,0,0,0-1.71-2,2,2,0,0,0-1.89,2Z" transform="translate(-9.86 -4.34)"/><path d="M90.85,4.49v8.2c0,.6,0,1.29.06,1.75H89.8l-.06-1.18h0a2.51,2.51,0,0,1-2.32,1.33c-1.63,0-2.9-1.38-2.9-3.44,0-2.26,1.39-3.64,3-3.64a2.28,2.28,0,0,1,2,1h0v-4Zm-1.23,5.93a2.37,2.37,0,0,0-.06-.52,1.81,1.81,0,0,0-1.78-1.43c-1.27,0-2,1.12-2,2.62s.67,2.51,2,2.51a1.85,1.85,0,0,0,1.81-1.47,2.26,2.26,0,0,0,.06-.53Z" transform="translate(-9.86 -4.34)"/><path d="M98.56,12.59c0,.7,0,1.32.06,1.85H97.53l-.07-1.11h0a2.54,2.54,0,0,1-2.24,1.26c-1.07,0-2.34-.58-2.34-3v-4h1.23v3.75c0,1.29.39,2.16,1.51,2.16a1.77,1.77,0,0,0,1.63-1.12,1.81,1.81,0,0,0,.11-.63V7.66h1.23Z" transform="translate(-9.86 -4.34)"/><path d="M105.44,14.19a4.53,4.53,0,0,1-2,.39,3.22,3.22,0,0,1-3.37-3.46,3.44,3.44,0,0,1,3.64-3.6,4.1,4.1,0,0,1,1.71.35l-.28,1a2.87,2.87,0,0,0-1.43-.32,2.35,2.35,0,0,0-2.4,2.56,2.33,2.33,0,0,0,2.35,2.54,3.41,3.41,0,0,0,1.52-.34Z" transform="translate(-9.86 -4.34)"/><path d="M108.54,5.71v2h1.77V8.6h-1.77v3.65c0,.85.24,1.32.93,1.32a2.82,2.82,0,0,0,.71-.08l.06.92a3,3,0,0,1-1.09.17,1.72,1.72,0,0,1-1.34-.52,2.49,2.49,0,0,1-.47-1.76V8.6h-1V7.66h1V6Z" transform="translate(-9.86 -4.34)"/><path d="M113.07,5.76a.77.77,0,0,1-1.53,0,.75.75,0,0,1,.77-.78A.74.74,0,0,1,113.07,5.76Zm-1.38,8.68V7.66h1.24v6.78Z" transform="translate(-9.86 -4.34)"/><path d="M121.1,11a3.31,3.31,0,0,1-3.37,3.6,3.22,3.22,0,0,1-3.25-3.48,3.31,3.31,0,0,1,3.36-3.6A3.2,3.2,0,0,1,121.1,11Zm-5.38.07c0,1.49.86,2.61,2.06,2.61s2.06-1.11,2.06-2.63c0-1.15-.57-2.61-2-2.61S115.72,9.78,115.72,11.06Z" transform="translate(-9.86 -4.34)"/><path d="M122.65,9.5c0-.71,0-1.28-.05-1.84h1.09l.07,1.12h0A2.5,2.5,0,0,1,126,7.51c.94,0,2.4.56,2.4,2.88v4h-1.24V10.53c0-1.09-.4-2-1.57-2A1.74,1.74,0,0,0,124,9.79a1.91,1.91,0,0,0-.08.57v4.08h-1.24Z" transform="translate(-9.86 -4.34)"/><path d="M133.52,14.44V8.6h-1V7.66h1V7.34A3.23,3.23,0,0,1,134.3,5,2.37,2.37,0,0,1,136,4.34a2.83,2.83,0,0,1,1,.2l-.17,1a1.91,1.91,0,0,0-.79-.16c-1.05,0-1.31.93-1.31,2v.36h1.64V8.6h-1.64v5.84Z" transform="translate(-9.86 -4.34)"/><path d="M141.23,14.44l-.09-.85h0a2.5,2.5,0,0,1-2.07,1A1.93,1.93,0,0,1,137,12.65c0-1.64,1.45-2.54,4.07-2.52V10a1.4,1.4,0,0,0-1.54-1.57,3.33,3.33,0,0,0-1.76.5l-.28-.81a4.15,4.15,0,0,1,2.23-.6c2.07,0,2.57,1.41,2.57,2.77v2.53a10,10,0,0,0,.11,1.63ZM141.05,11c-1.34,0-2.87.21-2.87,1.53a1.08,1.08,0,0,0,1.16,1.17A1.68,1.68,0,0,0,141,12.55a1.4,1.4,0,0,0,.07-.39Z" transform="translate(-9.86 -4.34)"/><path d="M149.06,14.19a4.53,4.53,0,0,1-1.95.39,3.22,3.22,0,0,1-3.37-3.46,3.44,3.44,0,0,1,3.64-3.6,4.1,4.1,0,0,1,1.71.35l-.28,1a2.87,2.87,0,0,0-1.43-.32,2.35,2.35,0,0,0-2.4,2.56,2.33,2.33,0,0,0,2.36,2.54,3.4,3.4,0,0,0,1.51-.34Z" transform="translate(-9.86 -4.34)"/><path d="M152.17,5.71v2h1.76V8.6h-1.76v3.65c0,.85.23,1.32.92,1.32a3,3,0,0,0,.72-.08l.05.92a3,3,0,0,1-1.09.17,1.68,1.68,0,0,1-1.33-.52A2.49,2.49,0,0,1,151,12.3V8.6h-1.05V7.66H151V6Z" transform="translate(-9.86 -4.34)"/><path d="M161.37,11a3.31,3.31,0,0,1-3.38,3.6,3.22,3.22,0,0,1-3.25-3.48,3.31,3.31,0,0,1,3.36-3.6A3.21,3.21,0,0,1,161.37,11Zm-5.38.07c0,1.49.85,2.61,2.06,2.61s2.06-1.11,2.06-2.63c0-1.15-.58-2.61-2-2.61S156,9.78,156,11.06Z" transform="translate(-9.86 -4.34)"/><path d="M162.92,9.78c0-.8,0-1.49-.06-2.12h1.08L164,9H164a2,2,0,0,1,1.88-1.48,1.34,1.34,0,0,1,.35,0V8.71a1.82,1.82,0,0,0-.42,0,1.74,1.74,0,0,0-1.66,1.58,3.39,3.39,0,0,0-.05.58v3.61h-1.22Z" transform="translate(-9.86 -4.34)"/><path d="M170.59,14.44V8.6h-1V7.66h1V7.34A3.23,3.23,0,0,1,171.37,5,2.37,2.37,0,0,1,173,4.34a2.83,2.83,0,0,1,1.05.2l-.17,1a1.9,1.9,0,0,0-.78-.16c-1.06,0-1.32.93-1.32,2v.36h1.64V8.6h-1.64v5.84Z" transform="translate(-9.86 -4.34)"/><path d="M180.22,12.59c0,.7,0,1.32.06,1.85h-1.09l-.07-1.11h0a2.54,2.54,0,0,1-2.24,1.26c-1.07,0-2.34-.58-2.34-3v-4h1.23v3.75c0,1.29.39,2.16,1.51,2.16a1.77,1.77,0,0,0,1.63-1.12,1.81,1.81,0,0,0,.11-.63V7.66h1.23Z" transform="translate(-9.86 -4.34)"/><path d="M182.27,9.5c0-.71,0-1.28-.06-1.84h1.09l.07,1.12h0a2.5,2.5,0,0,1,2.24-1.27c.94,0,2.4.56,2.4,2.88v4H186.8V10.53c0-1.09-.4-2-1.57-2a1.74,1.74,0,0,0-1.65,1.26,1.91,1.91,0,0,0-.08.57v4.08h-1.23Z" transform="translate(-9.86 -4.34)"/><path d="M194.87,14.19a4.53,4.53,0,0,1-2,.39,3.23,3.23,0,0,1-3.38-3.46,3.45,3.45,0,0,1,3.65-3.6,4.1,4.1,0,0,1,1.71.35l-.28,1a2.87,2.87,0,0,0-1.43-.32,2.35,2.35,0,0,0-2.4,2.56,2.33,2.33,0,0,0,2.35,2.54,3.41,3.41,0,0,0,1.52-.34Z" transform="translate(-9.86 -4.34)"/><path d="M198,5.71v2h1.77V8.6H198v3.65c0,.85.24,1.32.93,1.32a2.82,2.82,0,0,0,.71-.08l.06.92a3,3,0,0,1-1.09.17,1.68,1.68,0,0,1-1.33-.52,2.49,2.49,0,0,1-.48-1.76V8.6h-1.05V7.66h1.05V6Z" transform="translate(-9.86 -4.34)"/><path d="M202.5,5.76a.77.77,0,0,1-1.53,0,.75.75,0,0,1,.77-.78A.74.74,0,0,1,202.5,5.76Zm-1.38,8.68V7.66h1.24v6.78Z" transform="translate(-9.86 -4.34)"/><path d="M210.53,11a3.31,3.31,0,0,1-3.37,3.6,3.22,3.22,0,0,1-3.25-3.48,3.31,3.31,0,0,1,3.36-3.6A3.2,3.2,0,0,1,210.53,11Zm-5.37.07c0,1.49.85,2.61,2.05,2.61s2.06-1.11,2.06-2.63c0-1.15-.57-2.61-2-2.61S205.16,9.78,205.16,11.06Z" transform="translate(-9.86 -4.34)"/><path d="M212.08,9.5c0-.71,0-1.28-.05-1.84h1.09l.07,1.12h0a2.5,2.5,0,0,1,2.24-1.27c.94,0,2.4.56,2.4,2.88v4h-1.24V10.53c0-1.09-.4-2-1.57-2a1.74,1.74,0,0,0-1.65,1.26,1.91,1.91,0,0,0-.08.57v4.08h-1.24Z" transform="translate(-9.86 -4.34)"/><path d="M47.73,31.24V25.4h-.95v-.94h.95v-.32a3.23,3.23,0,0,1,.79-2.37,2.35,2.35,0,0,1,1.65-.63,2.79,2.79,0,0,1,1,.2l-.17.95a1.86,1.86,0,0,0-.78-.16c-1.05,0-1.32.93-1.32,2v.36h1.64v.94H49v5.84Z" transform="translate(-9.86 -4.34)"/><path d="M57.65,27.79a3.31,3.31,0,0,1-3.38,3.6A3.22,3.22,0,0,1,51,27.91a3.31,3.31,0,0,1,3.37-3.6A3.21,3.21,0,0,1,57.65,27.79Zm-5.38.07c0,1.49.86,2.61,2.06,2.61s2.06-1.11,2.06-2.63c0-1.15-.58-2.61-2-2.61S52.27,26.58,52.27,27.86Z" transform="translate(-9.86 -4.34)"/><path d="M59.2,26.58c0-.8,0-1.49-.06-2.12h1.08l.05,1.33h0a2,2,0,0,1,1.88-1.48,1.25,1.25,0,0,1,.35,0v1.16a1.76,1.76,0,0,0-.42,0,1.72,1.72,0,0,0-1.65,1.58,3.34,3.34,0,0,0-.06.58v3.61H59.2Z" transform="translate(-9.86 -4.34)"/><path d="M66.75,26.58c0-.8,0-1.49-.06-2.12h1.08l0,1.33h.06a2,2,0,0,1,1.87-1.48,1.25,1.25,0,0,1,.35,0v1.16a1.71,1.71,0,0,0-.42,0A1.74,1.74,0,0,0,68,27.05a3.34,3.34,0,0,0-.06.58v3.61H66.75Z" transform="translate(-9.86 -4.34)"/><path d="M72.75,22.56a.72.72,0,0,1-.78.75.73.73,0,0,1-.74-.75.75.75,0,0,1,.77-.78A.73.73,0,0,1,72.75,22.56Zm-1.37,8.68V24.46h1.23v6.78Z" transform="translate(-9.86 -4.34)"/><path d="M80.5,24.46c0,.49-.06,1-.06,1.86v3.94c0,1.55-.31,2.51-1,3.09a3.56,3.56,0,0,1-2.46.82,4.45,4.45,0,0,1-2.26-.56l.31-.94a3.84,3.84,0,0,0,2,.53c1.26,0,2.19-.66,2.19-2.37v-.75h0a2.43,2.43,0,0,1-2.16,1.13,3,3,0,0,1-2.88-3.3c0-2.3,1.5-3.6,3-3.6a2.23,2.23,0,0,1,2.11,1.17h0l.06-1Zm-1.28,2.68a1.62,1.62,0,0,0-.07-.56,1.77,1.77,0,0,0-1.72-1.31c-1.18,0-2,1-2,2.57,0,1.33.67,2.43,2,2.43A1.8,1.8,0,0,0,79.13,29a2.15,2.15,0,0,0,.09-.66Z" transform="translate(-9.86 -4.34)"/><path d="M82.48,21.29h1.23v4.23h0a2.3,2.3,0,0,1,.89-.86,2.5,2.5,0,0,1,1.26-.35c.91,0,2.36.56,2.36,2.9v4H87V27.35c0-1.1-.41-2-1.57-2a1.76,1.76,0,0,0-1.65,1.23,1.5,1.5,0,0,0-.09.59v4.09H82.48Z" transform="translate(-9.86 -4.34)"/><path d="M91.68,22.51v1.95h1.77v.94H91.68v3.65c0,.85.24,1.32.93,1.32a2.82,2.82,0,0,0,.71-.08l.06.92a3,3,0,0,1-1.1.17A1.71,1.71,0,0,1,91,30.86a2.49,2.49,0,0,1-.47-1.76V25.4h-1v-.94h1V22.83Z" transform="translate(-9.86 -4.34)"/><path d="M97.62,27v.91H94.16V27Z" transform="translate(-9.86 -4.34)"/><path d="M100.54,22.51v1.95h1.77v.94h-1.77v3.65c0,.85.24,1.32.93,1.32a2.82,2.82,0,0,0,.71-.08l.06.92a3,3,0,0,1-1.09.17,1.72,1.72,0,0,1-1.34-.52,2.49,2.49,0,0,1-.47-1.76V25.4h-1v-.94h1V22.83Z" transform="translate(-9.86 -4.34)"/><path d="M109.37,29.39c0,.7,0,1.32,0,1.85h-1.09l-.07-1.11h0A2.54,2.54,0,0,1,106,31.39c-1.07,0-2.34-.58-2.34-3v-4h1.23v3.75c0,1.29.4,2.16,1.52,2.16A1.77,1.77,0,0,0,108,29.25a1.81,1.81,0,0,0,.11-.63V24.46h1.24Z" transform="translate(-9.86 -4.34)"/><path d="M111.41,26.58c0-.8,0-1.49-.06-2.12h1.08l0,1.33h.06a2,2,0,0,1,1.87-1.48,1.25,1.25,0,0,1,.35,0v1.16a1.71,1.71,0,0,0-.42,0,1.73,1.73,0,0,0-1.65,1.58,3.39,3.39,0,0,0-.05.58v3.61h-1.22Z" transform="translate(-9.86 -4.34)"/><path d="M116,26.29c0-.7,0-1.27-.06-1.83h1.1l.07,1.12h0a2.51,2.51,0,0,1,2.25-1.27c.93,0,2.39.56,2.39,2.88v4h-1.23V27.33c0-1.09-.41-2-1.57-2a1.74,1.74,0,0,0-1.65,1.26,1.62,1.62,0,0,0-.09.57v4.08H116Z" transform="translate(-9.86 -4.34)"/><path d="M125.18,22.56a.76.76,0,0,1-1.52,0,.75.75,0,0,1,.77-.78A.73.73,0,0,1,125.18,22.56Zm-1.37,8.68V24.46H125v6.78Z" transform="translate(-9.86 -4.34)"/><path d="M127.09,26.29c0-.7,0-1.27-.06-1.83h1.09l.07,1.12h0a2.5,2.5,0,0,1,2.24-1.27c.94,0,2.4.56,2.4,2.88v4h-1.24V27.33c0-1.09-.4-2-1.57-2a1.74,1.74,0,0,0-1.65,1.26,1.91,1.91,0,0,0-.08.57v4.08h-1.23Z" transform="translate(-9.86 -4.34)"/><path d="M140.7,24.46c0,.49-.06,1-.06,1.86v3.94c0,1.55-.31,2.51-1,3.09a3.56,3.56,0,0,1-2.46.82,4.45,4.45,0,0,1-2.26-.56l.31-.94a3.84,3.84,0,0,0,2,.53c1.26,0,2.19-.66,2.19-2.37v-.75h0a2.43,2.43,0,0,1-2.16,1.13,3,3,0,0,1-2.88-3.3c0-2.3,1.49-3.6,3-3.6a2.23,2.23,0,0,1,2.11,1.17h0l.06-1Zm-1.28,2.68a1.62,1.62,0,0,0-.07-.56,1.77,1.77,0,0,0-1.72-1.31c-1.18,0-2,1-2,2.57,0,1.33.67,2.43,2,2.43a1.78,1.78,0,0,0,1.7-1.26,2.16,2.16,0,0,0,.1-.66Z" transform="translate(-9.86 -4.34)"/><path d="M146.13,24.46l1.33,3.81c.22.62.4,1.18.54,1.74h0c.16-.56.35-1.12.58-1.74l1.32-3.81h1.28l-2.66,6.78h-1.17l-2.58-6.78Z" transform="translate(-9.86 -4.34)"/><path d="M152.93,28.07a2.17,2.17,0,0,0,2.32,2.36,4.54,4.54,0,0,0,1.88-.35l.21.88a5.38,5.38,0,0,1-2.25.42A3.15,3.15,0,0,1,151.75,28c0-2,1.21-3.65,3.18-3.65,2.22,0,2.8,1.94,2.8,3.19a3.65,3.65,0,0,1,0,.57Zm3.61-.88a1.75,1.75,0,0,0-1.71-2,2,2,0,0,0-1.89,2Z" transform="translate(-9.86 -4.34)"/><path d="M159.26,21.29h1.23v4.23h0a2.21,2.21,0,0,1,.88-.86,2.53,2.53,0,0,1,1.26-.35c.91,0,2.37.56,2.37,2.9v4h-1.24V27.35c0-1.1-.4-2-1.56-2a1.79,1.79,0,0,0-1.66,1.23,1.51,1.51,0,0,0-.08.59v4.09h-1.23Z" transform="translate(-9.86 -4.34)"/><path d="M168.4,22.56a.72.72,0,0,1-.78.75.73.73,0,0,1-.75-.75.76.76,0,0,1,.77-.78A.73.73,0,0,1,168.4,22.56ZM167,31.24V24.46h1.23v6.78Z" transform="translate(-9.86 -4.34)"/><path d="M175.13,31a4.47,4.47,0,0,1-1.94.39,3.22,3.22,0,0,1-3.38-3.46,3.45,3.45,0,0,1,3.65-3.6,4.05,4.05,0,0,1,1.7.35l-.28.95a2.8,2.8,0,0,0-1.42-.32,2.35,2.35,0,0,0-2.4,2.56,2.33,2.33,0,0,0,2.35,2.54,3.45,3.45,0,0,0,1.52-.34Z" transform="translate(-9.86 -4.34)"/><path d="M176.57,21.29h1.24v10h-1.24Z" transform="translate(-9.86 -4.34)"/><path d="M180.56,28.07a2.18,2.18,0,0,0,2.33,2.36,4.61,4.61,0,0,0,1.88-.35L185,31a5.47,5.47,0,0,1-2.26.42A3.14,3.14,0,0,1,179.39,28c0-2,1.2-3.65,3.18-3.65,2.21,0,2.8,1.94,2.8,3.19a5.55,5.55,0,0,1,0,.57Zm3.62-.88a1.76,1.76,0,0,0-1.71-2,2,2,0,0,0-1.89,2Z" transform="translate(-9.86 -4.34)"/><path d="M186.72,30a3.24,3.24,0,0,0,1.63.49c.9,0,1.32-.45,1.32-1s-.35-.91-1.27-1.25c-1.21-.43-1.79-1.1-1.79-1.92a2.09,2.09,0,0,1,2.34-2,3.33,3.33,0,0,1,1.67.42l-.31.89a2.65,2.65,0,0,0-1.39-.39c-.72,0-1.13.42-1.13.92s.41.82,1.29,1.15c1.17.45,1.78,1,1.78,2.05,0,1.19-.93,2-2.54,2a3.84,3.84,0,0,1-1.9-.46Z" transform="translate(-9.86 -4.34)"/><path class="cls-1" d="M29,49.5C29,141,111.52,215,213.5,215" transform="translate(-9.86 -4.34)"/><line class="cls-2" x1="19.14" y1="32.56" x2="19.14" y2="216.16"/><path d="M25.4,42a.38.38,0,0,0,.52-.12L29,37.07l3.08,4.84a.38.38,0,0,0,.52.12.38.38,0,0,0,.11-.52l-3.39-5.34a.39.39,0,0,0-.64,0l-3.39,5.34a.36.36,0,0,0-.06.2A.39.39,0,0,0,25.4,42Z" transform="translate(-9.86 -4.34)"/><line class="cls-2" x1="216.24" y1="216.16" x2="19.14" y2="216.16"/><path d="M221,216.9a.38.38,0,0,0,.12.52l4.84,3.08-4.84,3.08a.38.38,0,0,0-.12.52.38.38,0,0,0,.52.11l5.34-3.39a.39.39,0,0,0,0-.64l-5.34-3.39a.36.36,0,0,0-.2-.06A.39.39,0,0,0,221,216.9Z" transform="translate(-9.86 -4.34)"/><line class="cls-1" x1="14.64" y1="49.66" x2="19.14" y2="49.66"/><path d="M20.31,52.14h0l-.87.49-.13-.54,1.09-.61H21v5.2h-.65Z" transform="translate(-9.86 -4.34)"/><path d="M10.22,162.91a5.78,5.78,0,0,1-.11-1.22,2.08,2.08,0,0,1,.39-1.42,1.15,1.15,0,0,1,.95-.43,1.27,1.27,0,0,1,1.18.87h0A1.37,1.37,0,0,1,14,159.65a1.48,1.48,0,0,1,1.08.43,2.57,2.57,0,0,1,.5,1.79,8,8,0,0,1-.06,1Zm2.2-.67v-.6c0-.71-.38-1.12-.9-1.12s-.88.46-.88,1.13a3,3,0,0,0,0,.59Zm2.59,0a4,4,0,0,0,0-.56c0-.69-.26-1.33-1-1.33s-1,.61-1,1.34v.55Z" transform="translate(-9.86 -4.34)"/><path d="M10.58,158a.4.4,0,0,1,.43.43.41.41,0,0,1-.43.41.42.42,0,0,1-.44-.43A.41.41,0,0,1,10.58,158Zm5,.75H11.67v-.67h3.87Z" transform="translate(-9.86 -4.34)"/><path d="M15.39,154.33a2.27,2.27,0,0,1,.23,1.06,1.81,1.81,0,0,1-2,1.85,1.92,1.92,0,0,1-2.05-2,2.16,2.16,0,0,1,.2-.94l.54.15a1.53,1.53,0,0,0-.18.79,1.31,1.31,0,0,0,1.46,1.31,1.31,1.31,0,0,0,1.45-1.29,1.83,1.83,0,0,0-.2-.83Z" transform="translate(-9.86 -4.34)"/><path d="M11.67,153.15l2.28-.81c.26-.09.56-.18.79-.24v0l-.8-.23-2.27-.74v-.72l2.75,1a6,6,0,0,1,2.43,1.27,1.79,1.79,0,0,1,.45.83l-.59.17a1.92,1.92,0,0,0-.34-.59,2.12,2.12,0,0,0-.79-.57.47.47,0,0,0-.16-.05.63.63,0,0,0-.19,0l-3.56,1.38Z" transform="translate(-9.86 -4.34)"/><path d="M15.39,147.21a2.27,2.27,0,0,1,.23,1.06,1.81,1.81,0,0,1-2,1.85,1.92,1.92,0,0,1-2.05-2,2.16,2.16,0,0,1,.2-.94l.54.15a1.53,1.53,0,0,0-.18.79,1.31,1.31,0,0,0,1.46,1.31,1.31,1.31,0,0,0,1.45-1.29,1.83,1.83,0,0,0-.2-.83Z" transform="translate(-9.86 -4.34)"/><path d="M9.86,146.41v-.67h5.68v.67Z" transform="translate(-9.86 -4.34)"/><path d="M13.73,144.23A1.22,1.22,0,0,0,15.07,143a2.43,2.43,0,0,0-.2-1l.51-.11a2.92,2.92,0,0,1,.24,1.23,1.77,1.77,0,0,1-2,1.83,1.85,1.85,0,0,1-2.08-1.74,1.62,1.62,0,0,1,1.82-1.54,2.19,2.19,0,0,1,.33,0Zm-.51-2c-.44,0-1.14.17-1.14.93s.66,1,1.14,1Z" transform="translate(-9.86 -4.34)"/><path d="M15.39,136.48a2.34,2.34,0,0,1,.23,1.06,1.81,1.81,0,0,1-2,1.85,1.92,1.92,0,0,1-2.05-2,2.16,2.16,0,0,1,.2-.94l.54.16a1.46,1.46,0,0,0-.18.78,1.31,1.31,0,0,0,1.46,1.31,1.31,1.31,0,0,0,1.45-1.29,1.86,1.86,0,0,0-.2-.83Z" transform="translate(-9.86 -4.34)"/><path d="M15.54,133.63l-.49.05v0a1.35,1.35,0,0,1,.57,1.13A1.08,1.08,0,0,1,14.51,136c-.93,0-1.45-.8-1.44-2.24H13a.79.79,0,0,0-.89.85,1.89,1.89,0,0,0,.28,1l-.46.15a2.22,2.22,0,0,1-.34-1.22c0-1.14.8-1.41,1.58-1.41h1.45a5.33,5.33,0,0,0,.93-.07Zm-2,.1c0,.74.12,1.57.87,1.57a.6.6,0,0,0,.67-.63.92.92,0,0,0-.64-.9.66.66,0,0,0-.23,0Z" transform="translate(-9.86 -4.34)"/><path d="M12.93,132c-.5,0-.9,0-1.26,0v-.6l.66,0v0a1.44,1.44,0,0,1-.75-1.32c0-.9.79-1.57,2-1.57,1.4,0,2.08.81,2.08,1.69a1.28,1.28,0,0,1-.6,1.14v0h2.1V132Zm1-.66a2.58,2.58,0,0,0,.29,0,1.05,1.05,0,0,0,.82-1c0-.71-.61-1.13-1.49-1.13s-1.44.4-1.44,1.11a1.08,1.08,0,0,0,.87,1,1.35,1.35,0,0,0,.29,0Z" transform="translate(-9.86 -4.34)"/><path d="M15.54,125.56l-.49,0v0a1.38,1.38,0,0,1,.57,1.14,1.08,1.08,0,0,1-1.11,1.14c-.93,0-1.45-.8-1.44-2.24H13a.79.79,0,0,0-.89.85,1.83,1.83,0,0,0,.28,1l-.46.16a2.24,2.24,0,0,1-.34-1.22c0-1.14.8-1.42,1.58-1.42h1.45a5.38,5.38,0,0,0,.93-.06Zm-2,.1c0,.73.12,1.57.87,1.57a.61.61,0,0,0,.67-.64.94.94,0,0,0-.64-.9l-.23,0Z" transform="translate(-9.86 -4.34)"/><path d="M15.39,121.26a2.36,2.36,0,0,1,.23,1.07,1.81,1.81,0,0,1-2,1.85,1.92,1.92,0,0,1-2.05-2,2.11,2.11,0,0,1,.2-.93l.54.15a1.49,1.49,0,0,0-.18.78,1.31,1.31,0,0,0,1.46,1.32,1.31,1.31,0,0,0,1.45-1.29,1.79,1.79,0,0,0-.2-.83Z" transform="translate(-9.86 -4.34)"/><path d="M10.58,119.72a.4.4,0,0,1,.43.43.41.41,0,0,1-.43.41.42.42,0,0,1-.44-.43A.41.41,0,0,1,10.58,119.72Zm5,.75H11.67v-.67h3.87Z" transform="translate(-9.86 -4.34)"/><path d="M10.55,117.86h1.12v-1h.53v1h2.09c.48,0,.75-.13.75-.51a1.27,1.27,0,0,0,0-.39l.53,0a1.51,1.51,0,0,1,.1.6.93.93,0,0,1-.3.73,1.49,1.49,0,0,1-1,.26H12.2v.58h-.53v-.58h-.93Z" transform="translate(-9.86 -4.34)"/><path d="M11.67,115.82,14,115l.79-.23v0l-.8-.24-2.27-.73v-.72l2.75,1a6,6,0,0,1,2.43,1.27,1.79,1.79,0,0,1,.45.83l-.59.17a1.92,1.92,0,0,0-.34-.59,2.12,2.12,0,0,0-.79-.57.54.54,0,0,0-.16-.06.76.76,0,0,0-.19.05l-3.56,1.37Z" transform="translate(-9.86 -4.34)"/><path d="M22.47,163.46c-.45,0-.84,0-1.21,0v-.59l.76,0v0a1.12,1.12,0,0,1-.84-1,1,1,0,0,1,0-.19h.67a.71.71,0,0,0,0,.23,1,1,0,0,0,.9.9,1.69,1.69,0,0,0,.33,0h2.06v.67Z" transform="translate(-9.86 -4.34)"/><path d="M23.33,160.65a1.21,1.21,0,0,0,1.34-1.27,2.36,2.36,0,0,0-.2-1l.5-.12a2.82,2.82,0,0,1,.24,1.24,1.76,1.76,0,0,1-1.95,1.82,1.85,1.85,0,0,1-2.08-1.74A1.62,1.62,0,0,1,23,158l.33,0Zm-.51-2c-.44,0-1.14.17-1.14.93s.66,1,1.14,1Z" transform="translate(-9.86 -4.34)"/><path d="M19.46,154h4.68c.34,0,.73,0,1,0v.6l-.67,0h0a1.36,1.36,0,0,1,.76,1.27,1.74,1.74,0,0,1-2,1.59c-1.29,0-2.08-.76-2.08-1.67a1.23,1.23,0,0,1,.59-1.12v0H19.46Zm3.38.67a1.53,1.53,0,0,0-.3,0,1,1,0,0,0-.81,1c0,.7.64,1.11,1.49,1.11s1.44-.37,1.44-1.09a1,1,0,0,0-.84-1,1.55,1.55,0,0,0-.31,0Z" transform="translate(-9.86 -4.34)"/><path d="M24.08,149.74q.6,0,1.05,0v.6l-.63,0v0a1.38,1.38,0,0,1,.72,1.23c0,.58-.33,1.28-1.69,1.28H21.26v-.68h2.15c.73,0,1.23-.21,1.23-.83a1,1,0,0,0-.64-.89,1.29,1.29,0,0,0-.36-.06H21.26v-.67Z" transform="translate(-9.86 -4.34)"/><path d="M25,146a2.3,2.3,0,0,1,.22,1.06,1.8,1.8,0,0,1-2,1.85,1.92,1.92,0,0,1-2-2,2.34,2.34,0,0,1,.19-.94l.55.15a1.53,1.53,0,0,0-.18.79,1.31,1.31,0,0,0,1.46,1.31,1.31,1.31,0,0,0,1.45-1.29,1.83,1.83,0,0,0-.2-.83Z" transform="translate(-9.86 -4.34)"/><path d="M20.15,144.26h1.11v-1h.54v1h2.09c.48,0,.75-.13.75-.51a1.27,1.27,0,0,0-.05-.39l.53,0a1.76,1.76,0,0,1,.09.6.93.93,0,0,1-.29.73,1.49,1.49,0,0,1-1,.26H21.8v.58h-.54v-.58h-.92Z" transform="translate(-9.86 -4.34)"/><path d="M20.18,141.78a.4.4,0,0,1,.43.43.41.41,0,0,1-.43.41.42.42,0,0,1-.44-.43A.41.41,0,0,1,20.18,141.78Zm4.95.75H21.26v-.67h3.87Z" transform="translate(-9.86 -4.34)"/><path d="M23.17,137.37a1.85,1.85,0,0,1,2,1.85,1.8,1.8,0,0,1-2,1.78,1.85,1.85,0,0,1-2.05-1.84A1.8,1.8,0,0,1,23.17,137.37Zm0,2.95c.85,0,1.49-.47,1.49-1.13s-.64-1.13-1.51-1.13c-.65,0-1.48.32-1.48,1.12S22.47,140.32,23.21,140.32Z" transform="translate(-9.86 -4.34)"/><path d="M22.31,136.52c-.4,0-.73,0-1,0V136l.64,0h0a1.38,1.38,0,0,1-.72-1.23c0-.51.32-1.31,1.64-1.31h2.31V134H22.9c-.62,0-1.14.22-1.14.86a1,1,0,0,0,.72.91,1.11,1.11,0,0,0,.33,0h2.32v.68Z" transform="translate(-9.86 -4.34)"/><path d="M25.13,130.56H21.8v.52h-.54v-.52h-.18a1.89,1.89,0,0,1-1.35-.43,1.24,1.24,0,0,1-.36-.91,1.64,1.64,0,0,1,.11-.57l.55.09a1,1,0,0,0-.09.43c0,.58.53.72,1.12.72h.2V129h.54v.9h3.33Z" transform="translate(-9.86 -4.34)"/><path d="M25.13,126.33l-.48,0v0a1.35,1.35,0,0,1,.57,1.13,1.08,1.08,0,0,1-1.11,1.14c-.93,0-1.45-.8-1.44-2.24h-.08a.79.79,0,0,0-.89.85,1.89,1.89,0,0,0,.28,1l-.46.15a2.22,2.22,0,0,1-.34-1.22c0-1.14.8-1.41,1.58-1.41h1.45a5.14,5.14,0,0,0,.92-.07Zm-2,.1c0,.74.12,1.57.87,1.57a.6.6,0,0,0,.67-.63.92.92,0,0,0-.64-.9.66.66,0,0,0-.23,0Z" transform="translate(-9.86 -4.34)"/><path d="M25,122a2.3,2.3,0,0,1,.22,1.06,1.8,1.8,0,0,1-2,1.85,1.92,1.92,0,0,1-2-2,2.34,2.34,0,0,1,.19-.94l.55.15a1.5,1.5,0,0,0-.18.79,1.31,1.31,0,0,0,1.46,1.31A1.31,1.31,0,0,0,24.66,123a1.83,1.83,0,0,0-.2-.83Z" transform="translate(-9.86 -4.34)"/><path d="M20.15,120.33h1.11v-1h.54v1h2.09c.48,0,.75-.13.75-.51a1.27,1.27,0,0,0-.05-.39l.53,0a1.76,1.76,0,0,1,.09.6.93.93,0,0,1-.29.73,1.49,1.49,0,0,1-1,.26H21.8v.58h-.54V121h-.92Z" transform="translate(-9.86 -4.34)"/><path d="M23.17,115.29a1.85,1.85,0,0,1,2,1.85,1.81,1.81,0,0,1-2,1.78,1.86,1.86,0,0,1-2.05-1.84A1.8,1.8,0,0,1,23.17,115.29Zm0,2.94c.85,0,1.49-.46,1.49-1.12S24.06,116,23.19,116c-.65,0-1.48.31-1.48,1.11S22.47,118.23,23.21,118.23Z" transform="translate(-9.86 -4.34)"/><path d="M22.47,114.43c-.45,0-.84,0-1.21,0v-.59l.76,0v0a1.12,1.12,0,0,1-.84-1,1,1,0,0,1,0-.19h.67a.8.8,0,0,0,0,.23,1,1,0,0,0,.9.9,1.66,1.66,0,0,0,.33,0h2.06v.66Z" transform="translate(-9.86 -4.34)"/><path d="M74.78,223.27a6.78,6.78,0,0,1,1.28-.11,2,2,0,0,1,1.49.44,1.33,1.33,0,0,1,.41,1A1.4,1.4,0,0,1,77,226v0a1.35,1.35,0,0,1,.76,1.09,8.81,8.81,0,0,0,.4,1.48h-.69a7.25,7.25,0,0,1-.35-1.29c-.15-.75-.43-1-1-1.05h-.63v2.34h-.66Zm.66,2.45h.69a1,1,0,0,0,1.16-1c0-.7-.48-1-1.19-1a2.26,2.26,0,0,0-.66.07Z" transform="translate(-9.86 -4.34)"/><path d="M79.71,223.63a.4.4,0,0,1-.42.43.41.41,0,0,1-.41-.43.42.42,0,0,1,.42-.44A.41.41,0,0,1,79.71,223.63Zm-.75,5v-3.87h.68v3.87Z" transform="translate(-9.86 -4.34)"/><path d="M84,224.72c0,.28,0,.59,0,1.06V228a2.27,2.27,0,0,1-.53,1.76,1.93,1.93,0,0,1-1.35.47,2.4,2.4,0,0,1-1.24-.32l.17-.54a2,2,0,0,0,1.09.3c.69,0,1.2-.37,1.2-1.35v-.43h0a1.3,1.3,0,0,1-1.18.65,1.71,1.71,0,0,1-1.58-1.89,1.83,1.83,0,0,1,1.67-2.05,1.22,1.22,0,0,1,1.16.67h0l0-.58Zm-.7,1.52a1.08,1.08,0,0,0,0-.32,1,1,0,0,0-.94-.74c-.65,0-1.11.57-1.11,1.46s.37,1.39,1.1,1.39a1,1,0,0,0,.94-.72,1.18,1.18,0,0,0,.05-.37Z" transform="translate(-9.86 -4.34)"/><path d="M85.05,222.91h.68v2.41h0a1.28,1.28,0,0,1,.49-.49,1.33,1.33,0,0,1,.69-.2c.5,0,1.29.32,1.29,1.65v2.31h-.67v-2.23c0-.62-.22-1.15-.86-1.15a1,1,0,0,0-.91.71,1,1,0,0,0,0,.33v2.34h-.68Z" transform="translate(-9.86 -4.34)"/><path d="M90.1,223.6v1.12h1v.53h-1v2.09c0,.48.13.75.5.75A1.3,1.3,0,0,0,91,228l0,.53a1.51,1.51,0,0,1-.6.1.92.92,0,0,1-.73-.3,1.49,1.49,0,0,1-.26-1v-2.11h-.58v-.53h.58v-.93Z" transform="translate(-9.86 -4.34)"/><path d="M93.35,226.16v.52H91.46v-.52Z" transform="translate(-9.86 -4.34)"/><path d="M95,223.6v1.12h1v.53H95v2.09c0,.48.13.75.51.75a1.27,1.27,0,0,0,.39-.05l0,.53a1.51,1.51,0,0,1-.6.1.92.92,0,0,1-.73-.3,1.49,1.49,0,0,1-.26-1v-2.11h-.58v-.53h.58v-.93Z" transform="translate(-9.86 -4.34)"/><path d="M99.8,227.53c0,.4,0,.75,0,1.06h-.6l0-.64h0a1.35,1.35,0,0,1-1.22.72c-.59,0-1.29-.33-1.29-1.69v-2.26h.68v2.14c0,.73.21,1.23.83,1.23a1,1,0,0,0,.89-.64,1,1,0,0,0,.06-.36v-2.37h.68Z" transform="translate(-9.86 -4.34)"/><path d="M100.92,225.92c0-.45,0-.84,0-1.2h.59l0,.76h0a1.13,1.13,0,0,1,1-.85l.19,0v.67a.75.75,0,0,0-.23,0,1,1,0,0,0-.9.9,1.69,1.69,0,0,0,0,.33v2.07h-.67Z" transform="translate(-9.86 -4.34)"/><path d="M103.46,225.76c0-.4,0-.72,0-1h.6l0,.63h0a1.38,1.38,0,0,1,1.23-.72c.51,0,1.31.32,1.31,1.64v2.32H106v-2.24c0-.62-.23-1.14-.86-1.14a1,1,0,0,0-.91.72,1.11,1.11,0,0,0,0,.33v2.33h-.68Z" transform="translate(-9.86 -4.34)"/><path d="M108.48,223.63a.41.41,0,0,1-.43.43.41.41,0,0,1-.41-.43.42.42,0,0,1,.42-.44A.42.42,0,0,1,108.48,223.63Zm-.76,5v-3.87h.68v3.87Z" transform="translate(-9.86 -4.34)"/><path d="M109.52,225.76c0-.4,0-.72,0-1h.6l0,.63h0a1.38,1.38,0,0,1,1.23-.72c.51,0,1.31.32,1.31,1.64v2.32H112v-2.24c0-.62-.23-1.14-.86-1.14a1,1,0,0,0-.91.72,1.11,1.11,0,0,0,0,.33v2.33h-.68Z" transform="translate(-9.86 -4.34)"/><path d="M117,224.72c0,.28,0,.59,0,1.06V228a2.27,2.27,0,0,1-.53,1.76,1.93,1.93,0,0,1-1.35.47,2.39,2.39,0,0,1-1.23-.32l.17-.54a2,2,0,0,0,1.09.3c.69,0,1.19-.37,1.19-1.35v-.43h0a1.32,1.32,0,0,1-1.18.65,1.71,1.71,0,0,1-1.59-1.89,1.83,1.83,0,0,1,1.68-2.05,1.23,1.23,0,0,1,1.16.67h0l0-.58Zm-.69,1.52a1.08,1.08,0,0,0,0-.32,1,1,0,0,0-1-.74c-.64,0-1.1.57-1.1,1.46s.37,1.39,1.09,1.39a1,1,0,0,0,.94-.72,1.19,1.19,0,0,0,.06-.37Z" transform="translate(-9.86 -4.34)"/><path d="M121.76,228.59l-.05-.49h0a1.35,1.35,0,0,1-1.13.57,1.08,1.08,0,0,1-1.14-1.11c0-.93.8-1.45,2.24-1.44V226a.79.79,0,0,0-.85-.89,1.81,1.81,0,0,0-1,.29l-.15-.47a2.22,2.22,0,0,1,1.22-.34c1.14,0,1.41.81,1.41,1.58v1.45a5.33,5.33,0,0,0,.07.93Zm-.1-2c-.74,0-1.57.12-1.57.87a.6.6,0,0,0,.63.67.92.92,0,0,0,.9-.64.66.66,0,0,0,0-.23Z" transform="translate(-9.86 -4.34)"/><path d="M126.51,227.53c0,.4,0,.75,0,1.06H126l0-.64h0a1.35,1.35,0,0,1-1.22.72c-.59,0-1.29-.33-1.29-1.69v-2.26h.68v2.14c0,.73.21,1.23.83,1.23a1,1,0,0,0,.89-.64,1,1,0,0,0,.06-.36v-2.37h.67Z" transform="translate(-9.86 -4.34)"/><path d="M128.45,223.6v1.12h1v.53h-1v2.09c0,.48.13.75.51.75a1.27,1.27,0,0,0,.39-.05l0,.53a1.51,1.51,0,0,1-.6.1.93.93,0,0,1-.73-.3,1.49,1.49,0,0,1-.26-1v-2.11h-.58v-.53h.58v-.93Z" transform="translate(-9.86 -4.34)"/><path d="M133.5,226.62a1.86,1.86,0,0,1-1.85,2,1.8,1.8,0,0,1-1.78-2,1.85,1.85,0,0,1,1.84-2.05A1.81,1.81,0,0,1,133.5,226.62Zm-2.95,0c0,.85.47,1.49,1.13,1.49s1.12-.64,1.12-1.51c0-.65-.31-1.48-1.11-1.48S130.55,225.92,130.55,226.66Z" transform="translate(-9.86 -4.34)"/><path d="M134.35,225.76c0-.4,0-.72,0-1h.59l0,.62h0a1.28,1.28,0,0,1,1.17-.71,1.1,1.1,0,0,1,1.05.77h0a1.6,1.6,0,0,1,.41-.5,1.21,1.21,0,0,1,.82-.27c.49,0,1.22.33,1.22,1.68v2.28H139v-2.2c0-.74-.26-1.19-.8-1.19a.88.88,0,0,0-.8.64,1.28,1.28,0,0,0-.06.35v2.4h-.66v-2.32c0-.62-.26-1.07-.77-1.07a1,1,0,0,0-.84.71.93.93,0,0,0-.05.34v2.34h-.66Z" transform="translate(-9.86 -4.34)"/><path d="M144.12,226.62a1.85,1.85,0,0,1-1.85,2,1.8,1.8,0,0,1-1.78-2,1.85,1.85,0,0,1,1.84-2.05A1.81,1.81,0,0,1,144.12,226.62Zm-3,0c0,.85.47,1.49,1.13,1.49s1.13-.64,1.13-1.51c0-.65-.32-1.48-1.12-1.48S141.17,225.92,141.17,226.66Z" transform="translate(-9.86 -4.34)"/><path d="M144.94,228.59c0-.27,0-.66,0-1v-4.68h.67v2.43h0a1.38,1.38,0,0,1,1.27-.71c.92,0,1.57.8,1.57,2,0,1.39-.84,2.07-1.67,2.07a1.3,1.3,0,0,1-1.24-.72h0l0,.64Zm.7-1.56a1.09,1.09,0,0,0,0,.26,1,1,0,0,0,1,.82c.71,0,1.13-.6,1.13-1.48s-.38-1.44-1.1-1.44a1.08,1.08,0,0,0-1,.86,1.19,1.19,0,0,0,0,.29Z" transform="translate(-9.86 -4.34)"/><path d="M150.09,223.63a.42.42,0,1,1-.83,0,.42.42,0,0,1,.42-.44A.41.41,0,0,1,150.09,223.63Zm-.75,5v-3.87H150v3.87Z" transform="translate(-9.86 -4.34)"/><path d="M151.14,222.91h.67v5.68h-.67Z" transform="translate(-9.86 -4.34)"/><path d="M153.33,226.78a1.2,1.2,0,0,0,1.27,1.34,2.39,2.39,0,0,0,1-.2l.11.51a2.88,2.88,0,0,1-1.23.24,1.77,1.77,0,0,1-1.83-2,1.85,1.85,0,0,1,1.74-2.08,1.62,1.62,0,0,1,1.54,1.82c0,.14,0,.26,0,.33Zm2-.51c0-.44-.18-1.14-.94-1.14s-1,.66-1,1.14Z" transform="translate(-9.86 -4.34)"/><path d="M158.69,224.72l.73,2.17a9,9,0,0,1,.29,1h0c.08-.32.19-.64.31-1l.72-2.17h.71L160,228.59h-.64L158,224.72Z" transform="translate(-9.86 -4.34)"/><path d="M165.41,226.62a1.86,1.86,0,0,1-1.85,2,1.8,1.8,0,0,1-1.78-2,1.85,1.85,0,0,1,1.84-2.05A1.81,1.81,0,0,1,165.41,226.62Zm-2.95,0c0,.85.47,1.49,1.13,1.49s1.12-.64,1.12-1.51c0-.65-.31-1.48-1.11-1.48S162.46,225.92,162.46,226.66Z" transform="translate(-9.86 -4.34)"/><path d="M166.26,222.91h.67v5.68h-.67Z" transform="translate(-9.86 -4.34)"/><path d="M171.18,227.53c0,.4,0,.75,0,1.06h-.6l0-.64h0a1.38,1.38,0,0,1-1.23.72c-.58,0-1.28-.33-1.28-1.69v-2.26h.67v2.14c0,.73.22,1.23.83,1.23a1,1,0,0,0,.89-.64,1,1,0,0,0,.06-.36v-2.37h.68Z" transform="translate(-9.86 -4.34)"/><path d="M172.3,225.76c0-.4,0-.72,0-1h.59l0,.62h0a1.27,1.27,0,0,1,1.16-.71,1.12,1.12,0,0,1,1.06.77h0a1.62,1.62,0,0,1,.42-.5,1.19,1.19,0,0,1,.82-.27c.49,0,1.22.33,1.22,1.68v2.28H177v-2.2c0-.74-.26-1.19-.81-1.19a.9.9,0,0,0-.8.64,1.29,1.29,0,0,0-.05.35v2.4h-.66v-2.32c0-.62-.26-1.07-.78-1.07a1.08,1.08,0,0,0-.89,1.05v2.34h-.66Z" transform="translate(-9.86 -4.34)"/><path d="M179.08,226.78a1.22,1.22,0,0,0,1.28,1.34,2.43,2.43,0,0,0,1-.2l.11.51a2.92,2.92,0,0,1-1.23.24,1.77,1.77,0,0,1-1.83-2,1.85,1.85,0,0,1,1.74-2.08,1.62,1.62,0,0,1,1.54,1.82,2.19,2.19,0,0,1,0,.33Zm2-.51c0-.44-.18-1.14-.94-1.14s-1,.66-1,1.14Z" transform="translate(-9.86 -4.34)"/><path d="M119.24,232.64a5.41,5.41,0,0,0-1,3.27,5.49,5.49,0,0,0,1,3.24h-.53a5.23,5.23,0,0,1-1-3.24,5.38,5.38,0,0,1,1-3.27Z" transform="translate(-9.86 -4.34)"/><path d="M120.21,234.32l.73,2.17a7.32,7.32,0,0,1,.3,1h0c.08-.32.19-.64.31-1l.72-2.17H123l-1.46,3.87h-.65l-1.41-3.87Z" transform="translate(-9.86 -4.34)"/><path d="M124,236.38a1.2,1.2,0,0,0,1.27,1.34,2.39,2.39,0,0,0,1-.2l.11.51a2.88,2.88,0,0,1-1.23.24,1.77,1.77,0,0,1-1.83-2,1.85,1.85,0,0,1,1.74-2.08,1.62,1.62,0,0,1,1.54,1.82c0,.14,0,.26,0,.33Zm2-.5c0-.45-.18-1.15-.94-1.15s-1,.66-1,1.15Z" transform="translate(-9.86 -4.34)"/><path d="M127.42,232.51h.67v2.41h0a1.25,1.25,0,0,1,.48-.49,1.36,1.36,0,0,1,.69-.2c.5,0,1.3.32,1.3,1.65v2.31h-.68V236c0-.62-.22-1.15-.86-1.15a1,1,0,0,0-.9.71.79.79,0,0,0,0,.33v2.34h-.67Z" transform="translate(-9.86 -4.34)"/><path d="M131.11,238.51l2.14-5.8h.53l-2.15,5.8Z" transform="translate(-9.86 -4.34)"/><path d="M134.22,237.47a1.77,1.77,0,0,0,.89.28c.49,0,.72-.26.72-.58s-.19-.52-.69-.71c-.66-.25-1-.63-1-1.1a1.16,1.16,0,0,1,1.28-1.13,1.8,1.8,0,0,1,.92.24l-.17.51a1.4,1.4,0,0,0-.76-.22.55.55,0,0,0-.62.52c0,.32.22.47.7.66.65.25,1,.59,1,1.17s-.51,1.16-1.39,1.16a2.06,2.06,0,0,1-1-.27Z" transform="translate(-9.86 -4.34)"/><path d="M137,239.15a5.6,5.6,0,0,0,1-3.27,5.45,5.45,0,0,0-1-3.24h.52a5.22,5.22,0,0,1,1,3.25,5.32,5.32,0,0,1-1,3.26Z" transform="translate(-9.86 -4.34)"/></svg>