<svg id="Layer_1" data-name="Layer 1" xmlns="http://www.w3.org/2000/svg" viewBox="0 0 216.25 234.13"><defs><style>.cls-1,.cls-10,.cls-11,.cls-2,.cls-3,.cls-5,.cls-7,.cls-8,.cls-9{fill:none;}.cls-1,.cls-10,.cls-11,.cls-8,.cls-9{stroke:#000;}.cls-1,.cls-10,.cls-11,.cls-13,.cls-2,.cls-3,.cls-5,.cls-7,.cls-8,.cls-9{stroke-miterlimit:10;}.cls-1{stroke-width:0.25px;}.cls-2,.cls-3{stroke:red;}.cls-2,.cls-3,.cls-5{stroke-width:0.75px;}.cls-3{stroke-dasharray:11.29 16.94;}.cls-13,.cls-4{fill:red;}.cls-5{stroke:#39b54a;}.cls-6{fill:#39b54a;}.cls-7{stroke:#666;}.cls-10,.cls-11,.cls-13,.cls-9{stroke-width:0.5px;}.cls-10{stroke-dasharray:6 6;}.cls-11{stroke-dasharray:6 6;}.cls-12{fill:#009245;}.cls-13{stroke:#b3b3b3;}.cls-14{fill:#fff;}</style></defs><title>bike-twsc-conflicts</title><rect class="cls-1" x="0.13" y="18.01" width="216" height="216"/><line class="cls-2" x1="9.12" y1="108.01" x2="15.12" y2="108.01"/><line class="cls-3" x1="32.06" y1="108.01" x2="164.75" y2="108.01"/><line class="cls-2" x1="173.22" y1="108.01" x2="179.22" y2="108.01"/><path class="cls-4" d="M185,116.1a.38.38,0,0,1,.12-.52l4.84-3.08-4.84-3.08a.38.38,0,0,1-.12-.52.38.38,0,0,1,.52-.11l5.34,3.39a.39.39,0,0,1,0,.64l-5.34,3.39a.36.36,0,0,1-.2.06A.39.39,0,0,1,185,116.1Z" transform="translate(-10.88 -4.49)"/><line class="cls-5" x1="139.62" y1="226.51" x2="139.62" y2="54.91"/><path class="cls-6" d="M154.1,64.53a.38.38,0,0,1-.52-.12l-3.08-4.84-3.08,4.84a.38.38,0,0,1-.52.12.38.38,0,0,1-.11-.52l3.39-5.34a.39.39,0,0,1,.64,0L154.21,64a.36.36,0,0,1,.06.2A.39.39,0,0,1,154.1,64.53Z" transform="translate(-10.88 -4.49)"/><path d="M21.89,6H19V5h7V6H23.13v8.4H21.89Z" transform="translate(-10.88 -4.49)"/><path d="M27,7.66l.89,3.45c.2.75.38,1.45.51,2.15h0c.15-.68.38-1.41.6-2.14L30.1,7.66h1l1.05,3.39c.26.81.45,1.53.61,2.21h0a19.07,19.07,0,0,1,.52-2.2l1-3.4h1.22l-2.18,6.78H32.23l-1-3.24A19.54,19.54,0,0,1,30.59,9h0a20.29,20.29,0,0,1-.62,2.24l-1.09,3.22H27.73L25.68,7.66Z" transform="translate(-10.88 -4.49)"/><path d="M42.75,11a3.31,3.31,0,0,1-3.37,3.6,3.22,3.22,0,0,1-3.25-3.48,3.31,3.31,0,0,1,3.36-3.6A3.2,3.2,0,0,1,42.75,11Zm-5.37.07c0,1.49.85,2.61,2,2.61s2.06-1.11,2.06-2.63c0-1.15-.57-2.61-2-2.61S37.38,9.78,37.38,11.06Z" transform="translate(-10.88 -4.49)"/><path d="M47.37,10.2v.91H43.91V10.2Z" transform="translate(-10.88 -4.49)"/><path d="M49.23,7.66l.9,3.45c.2.75.38,1.45.5,2.15h0c.15-.68.37-1.41.6-2.14l1.1-3.46h1l1,3.39c.25.81.45,1.53.6,2.21h0a21.2,21.2,0,0,1,.51-2.2l1-3.4h1.22l-2.19,6.78H54.51l-1-3.24A19.54,19.54,0,0,1,52.88,9h0a20.29,20.29,0,0,1-.62,2.24l-1.09,3.22H50L48,7.66Z" transform="translate(-10.88 -4.49)"/><path d="M62.74,14.44l-.09-.85h0a2.5,2.5,0,0,1-2.07,1,1.93,1.93,0,0,1-2.07-1.94c0-1.64,1.46-2.54,4.07-2.52V10A1.4,1.4,0,0,0,61,8.42a3.35,3.35,0,0,0-1.76.5L59,8.11a4.15,4.15,0,0,1,2.23-.6c2.07,0,2.57,1.41,2.57,2.77v2.53a9,9,0,0,0,.12,1.63ZM62.56,11c-1.34,0-2.87.21-2.87,1.53a1.08,1.08,0,0,0,1.16,1.17,1.68,1.68,0,0,0,1.64-1.13,1.4,1.4,0,0,0,.07-.39Z" transform="translate(-10.88 -4.49)"/><path d="M66.07,7.66l1.49,4c.15.44.32,1,.43,1.38h0c.13-.4.27-.92.44-1.41l1.34-4h1.3l-1.85,4.83c-.88,2.33-1.48,3.52-2.32,4.25a3.44,3.44,0,0,1-1.51.8l-.31-1a3.3,3.3,0,0,0,1.08-.6,3.87,3.87,0,0,0,1-1.38.76.76,0,0,0,.1-.29,1.2,1.2,0,0,0-.08-.32L64.73,7.66Z" transform="translate(-10.88 -4.49)"/><path d="M75.06,13a4.41,4.41,0,0,0,2.19.61c1.24,0,2-.66,2-1.61s-.5-1.39-1.78-1.88C75.9,9.54,75,8.74,75,7.41s1.22-2.57,3-2.57a4.26,4.26,0,0,1,2.09.47l-.34,1A3.67,3.67,0,0,0,78,5.85c-1.29,0-1.78.77-1.78,1.42,0,.88.58,1.31,1.88,1.82,1.6.62,2.41,1.39,2.41,2.77s-1.08,2.72-3.31,2.72a5,5,0,0,1-2.41-.6Z" transform="translate(-10.88 -4.49)"/><path d="M83.53,5.71v2H85.3V8.6H83.53v3.65c0,.85.24,1.32.93,1.32a2.82,2.82,0,0,0,.71-.08l.06.92a3,3,0,0,1-1.1.17,1.71,1.71,0,0,1-1.33-.52,2.49,2.49,0,0,1-.47-1.76V8.6h-1V7.66h1V6Z" transform="translate(-10.88 -4.49)"/><path d="M92.73,11a3.31,3.31,0,0,1-3.37,3.6,3.22,3.22,0,0,1-3.25-3.48,3.31,3.31,0,0,1,3.36-3.6A3.2,3.2,0,0,1,92.73,11Zm-5.38.07c0,1.49.86,2.61,2.06,2.61s2.06-1.11,2.06-2.63c0-1.15-.57-2.61-2-2.61S87.35,9.78,87.35,11.06Z" transform="translate(-10.88 -4.49)"/><path d="M94.28,9.87c0-.87,0-1.57,0-2.21h1.1l.06,1.16h0a2.67,2.67,0,0,1,2.41-1.31c1.64,0,2.87,1.38,2.87,3.44,0,2.44-1.49,3.64-3.08,3.64a2.38,2.38,0,0,1-2.09-1.06h0v3.68H94.28Zm1.22,1.81a2.54,2.54,0,0,0,.06.5,1.9,1.9,0,0,0,1.85,1.45c1.3,0,2.06-1.07,2.06-2.62,0-1.36-.72-2.52-2-2.52A2,2,0,0,0,95.59,10a1.76,1.76,0,0,0-.09.51Z" transform="translate(-10.88 -4.49)"/><path d="M111.86,14.13a6,6,0,0,1-2.5.45A4.41,4.41,0,0,1,104.7,9.8a4.7,4.7,0,0,1,4.93-5,5,5,0,0,1,2.24.43l-.29,1a4.5,4.5,0,0,0-1.91-.39c-2.21,0-3.68,1.41-3.68,3.89,0,2.31,1.33,3.8,3.63,3.8a5,5,0,0,0,2-.39Z" transform="translate(-10.88 -4.49)"/><path d="M119.32,11a3.31,3.31,0,0,1-3.38,3.6,3.22,3.22,0,0,1-3.25-3.48,3.31,3.31,0,0,1,3.36-3.6A3.21,3.21,0,0,1,119.32,11Zm-5.38.07c0,1.49.85,2.61,2.06,2.61s2.06-1.11,2.06-2.63c0-1.15-.58-2.61-2-2.61S113.94,9.78,113.94,11.06Z" transform="translate(-10.88 -4.49)"/><path d="M120.87,9.5c0-.71,0-1.28-.06-1.84h1.1L122,8.78h0a2.52,2.52,0,0,1,2.25-1.27c.93,0,2.39.56,2.39,2.88v4h-1.23V10.53c0-1.09-.41-2-1.57-2a1.74,1.74,0,0,0-1.65,1.26,1.62,1.62,0,0,0-.09.57v4.08h-1.23Z" transform="translate(-10.88 -4.49)"/><path d="M130.07,5.71v2h1.76V8.6h-1.76v3.65c0,.85.24,1.32.92,1.32a3,3,0,0,0,.72-.08l0,.92a2.91,2.91,0,0,1-1.09.17,1.69,1.69,0,0,1-1.33-.52,2.49,2.49,0,0,1-.48-1.76V8.6h-1.05V7.66h1.05V6Z" transform="translate(-10.88 -4.49)"/><path d="M133.22,9.78c0-.8,0-1.49-.06-2.12h1.08l0,1.33h.06a2,2,0,0,1,1.87-1.48,1.32,1.32,0,0,1,.36,0V8.71a1.85,1.85,0,0,0-.43,0,1.74,1.74,0,0,0-1.65,1.58,3.39,3.39,0,0,0-.05.58v3.61h-1.22Z" transform="translate(-10.88 -4.49)"/><path d="M143.79,11a3.31,3.31,0,0,1-3.37,3.6,3.22,3.22,0,0,1-3.25-3.48,3.31,3.31,0,0,1,3.36-3.6A3.21,3.21,0,0,1,143.79,11Zm-5.38.07c0,1.49.86,2.61,2.06,2.61s2.06-1.11,2.06-2.63c0-1.15-.57-2.61-2-2.61S138.41,9.78,138.41,11.06Z" transform="translate(-10.88 -4.49)"/><path d="M145.34,4.49h1.23v10h-1.23Z" transform="translate(-10.88 -4.49)"/><path d="M148.64,4.49h1.24v10h-1.24Z" transform="translate(-10.88 -4.49)"/><path d="M152.63,11.27A2.18,2.18,0,0,0,155,13.63a4.57,4.57,0,0,0,1.88-.35l.21.88a5.47,5.47,0,0,1-2.26.42,3.15,3.15,0,0,1-3.33-3.42c0-2,1.2-3.65,3.18-3.65,2.21,0,2.8,1.94,2.8,3.19a5.55,5.55,0,0,1,0,.57Zm3.62-.88a1.76,1.76,0,0,0-1.71-2,2,2,0,0,0-1.89,2Z" transform="translate(-10.88 -4.49)"/><path d="M164.82,4.49v8.2c0,.6,0,1.29.05,1.75h-1.1l-.06-1.18h0a2.5,2.5,0,0,1-2.31,1.33c-1.64,0-2.9-1.38-2.9-3.44,0-2.26,1.39-3.64,3-3.64a2.28,2.28,0,0,1,2.05,1h0v-4Zm-1.24,5.93a2.35,2.35,0,0,0-.05-.52,1.82,1.82,0,0,0-1.78-1.43c-1.28,0-2,1.12-2,2.62s.67,2.51,2,2.51a1.86,1.86,0,0,0,1.81-1.47,2.27,2.27,0,0,0,.05-.53Z" transform="translate(-10.88 -4.49)"/><path d="M176.47,14.13a6,6,0,0,1-2.5.45,4.41,4.41,0,0,1-4.66-4.78,4.7,4.7,0,0,1,4.93-5,5,5,0,0,1,2.24.43l-.29,1a4.57,4.57,0,0,0-1.91-.39c-2.21,0-3.68,1.41-3.68,3.89,0,2.31,1.33,3.8,3.62,3.8a5,5,0,0,0,2-.39Z" transform="translate(-10.88 -4.49)"/><path d="M177.9,9.78c0-.8,0-1.49-.05-2.12h1.08L179,9H179a2,2,0,0,1,1.88-1.48,1.25,1.25,0,0,1,.35,0V8.71a1.71,1.71,0,0,0-.42,0,1.73,1.73,0,0,0-1.65,1.58,3.34,3.34,0,0,0-.06.58v3.61H177.9Z" transform="translate(-10.88 -4.49)"/><path d="M188.48,11a3.31,3.31,0,0,1-3.38,3.6,3.22,3.22,0,0,1-3.25-3.48,3.31,3.31,0,0,1,3.36-3.6A3.21,3.21,0,0,1,188.48,11Zm-5.38.07c0,1.49.85,2.61,2.06,2.61s2.06-1.11,2.06-2.63c0-1.15-.58-2.61-2-2.61S183.1,9.78,183.1,11.06Z" transform="translate(-10.88 -4.49)"/><path d="M189.86,13.18a3.21,3.21,0,0,0,1.63.49c.89,0,1.31-.45,1.31-1s-.35-.91-1.26-1.25c-1.22-.43-1.79-1.1-1.79-1.91a2.09,2.09,0,0,1,2.34-2,3.29,3.29,0,0,1,1.66.42l-.3.89a2.65,2.65,0,0,0-1.39-.39c-.73,0-1.14.42-1.14.92s.41.82,1.29,1.15c1.18.45,1.78,1,1.78,2.05,0,1.19-.92,2-2.53,2a3.88,3.88,0,0,1-1.91-.46Z" transform="translate(-10.88 -4.49)"/><path d="M195.4,13.18a3.24,3.24,0,0,0,1.63.49c.9,0,1.32-.45,1.32-1s-.35-.91-1.27-1.25c-1.21-.43-1.79-1.1-1.79-1.91a2.09,2.09,0,0,1,2.34-2,3.33,3.33,0,0,1,1.67.42l-.31.89a2.65,2.65,0,0,0-1.39-.39c-.72,0-1.13.42-1.13.92s.41.82,1.29,1.15c1.17.45,1.78,1,1.78,2.05,0,1.19-.93,2-2.54,2a3.84,3.84,0,0,1-1.9-.46Z" transform="translate(-10.88 -4.49)"/><path d="M202.49,5.76a.72.72,0,0,1-.78.75.73.73,0,0,1-.75-.75.75.75,0,0,1,.77-.78A.73.73,0,0,1,202.49,5.76Zm-1.37,8.68V7.66h1.23v6.78Z" transform="translate(-10.88 -4.49)"/><path d="M204.39,9.5c0-.71,0-1.28,0-1.84h1.09l.07,1.12h0a2.49,2.49,0,0,1,2.24-1.27c.94,0,2.39.56,2.39,2.88v4h-1.23V10.53c0-1.09-.41-2-1.57-2a1.74,1.74,0,0,0-1.65,1.26,1.64,1.64,0,0,0-.08.57v4.08h-1.24Z" transform="translate(-10.88 -4.49)"/><path d="M218,7.66c0,.49-.05,1-.05,1.86v3.94a3.91,3.91,0,0,1-1,3.1,3.62,3.62,0,0,1-2.46.81,4.43,4.43,0,0,1-2.26-.56l.31-.94a3.84,3.84,0,0,0,2,.53c1.26,0,2.18-.66,2.18-2.37v-.75h0a2.4,2.4,0,0,1-2.15,1.13,3,3,0,0,1-2.89-3.3c0-2.3,1.5-3.6,3.06-3.6a2.25,2.25,0,0,1,2.11,1.17h0l0-1Zm-1.27,2.68a1.91,1.91,0,0,0-.07-.56,1.78,1.78,0,0,0-1.72-1.31c-1.18,0-2,1-2,2.57,0,1.33.67,2.43,2,2.43a1.8,1.8,0,0,0,1.71-1.26,2.16,2.16,0,0,0,.1-.66Z" transform="translate(-10.88 -4.49)"/><line class="cls-2" x1="207.12" y1="139.51" x2="201.12" y2="139.51"/><line class="cls-3" x1="184.19" y1="139.51" x2="51.5" y2="139.51"/><line class="cls-2" x1="43.03" y1="139.51" x2="37.03" y2="139.51"/><path class="cls-4" d="M53,140.4a.38.38,0,0,1-.12.52L48.07,144l4.84,3.08a.38.38,0,0,1,.12.52.38.38,0,0,1-.52.11l-5.34-3.39a.39.39,0,0,1,0-.64l5.34-3.39a.36.36,0,0,1,.2-.06A.39.39,0,0,1,53,140.4Z" transform="translate(-10.88 -4.49)"/><line class="cls-7" x1="144.12" y1="162.01" x2="216.12" y2="162.01"/><path class="cls-8" d="M119,166.5" transform="translate(-10.88 -4.49)"/><line class="cls-7" x1="0.12" y1="162.01" x2="72.12" y2="162.01"/><line class="cls-9" x1="144.12" y1="126.01" x2="147.12" y2="126.01"/><line class="cls-10" x1="153.12" y1="126.01" x2="210.12" y2="126.01"/><line class="cls-9" x1="213.12" y1="126.01" x2="216.12" y2="126.01"/><line class="cls-9" x1="0.12" y1="126.01" x2="3.12" y2="126.01"/><line class="cls-11" x1="9.12" y1="126.01" x2="66.12" y2="126.01"/><line class="cls-9" x1="69.12" y1="126.01" x2="72.12" y2="126.01"/><line class="cls-7" x1="144.12" y1="90.01" x2="216.12" y2="90.01"/><path class="cls-8" d="M119,94.5" transform="translate(-10.88 -4.49)"/><polyline class="cls-7" points="0.13 90 54.13 90 72.13 90"/><line class="cls-7" x1="144.12" y1="162.01" x2="144.12" y2="234.01"/><path class="cls-8" d="M155,130.5" transform="translate(-10.88 -4.49)"/><line class="cls-7" x1="144.12" y1="18.01" x2="144.12" y2="90.01"/><line class="cls-9" x1="108.12" y1="162.01" x2="108.12" y2="165.01"/><line class="cls-10" x1="108.12" y1="171.01" x2="108.12" y2="228.01"/><line class="cls-9" x1="108.12" y1="231.01" x2="108.12" y2="234.01"/><line class="cls-9" x1="108.12" y1="18.01" x2="108.12" y2="21.01"/><line class="cls-11" x1="108.12" y1="27.01" x2="108.12" y2="84.01"/><line class="cls-9" x1="108.12" y1="87.01" x2="108.12" y2="90.01"/><path class="cls-7" d="M83,238.5v-72" transform="translate(-10.88 -4.49)"/><path class="cls-8" d="M83,130.5" transform="translate(-10.88 -4.49)"/><line class="cls-7" x1="72.13" y1="18.01" x2="72.13" y2="90.01"/><line class="cls-7" x1="72.12" y1="162.01" x2="72.12" y2="126.01"/><line class="cls-7" x1="144.12" y1="162.01" x2="108.12" y2="162.01"/><line class="cls-7" x1="144.12" y1="90.01" x2="144.12" y2="126.01"/><line class="cls-7" x1="72.12" y1="90.01" x2="108.12" y2="90.01"/><line class="cls-1" x1="135.12" y1="18.01" x2="135.12" y2="90.01"/><line class="cls-1" x1="216.12" y1="99.01" x2="144.12" y2="99.01"/><line class="cls-1" x1="216.12" y1="153.01" x2="144.12" y2="153.01"/><line class="cls-1" x1="72.12" y1="99.01" x2="0.12" y2="99.01"/><line class="cls-1" x1="72.12" y1="153.01" x2="0.12" y2="153.01"/><line class="cls-1" x1="135.12" y1="234.01" x2="135.12" y2="162.01"/><line class="cls-1" x1="81.12" y1="234.01" x2="81.12" y2="162.01"/><path d="M20.38,177.59a9.08,9.08,0,0,1,1.75-.16,3.09,3.09,0,0,1,2,.54,1.57,1.57,0,0,1,.61,1.31,1.75,1.75,0,0,1-1.25,1.63v0a1.92,1.92,0,0,1,1.53,1.86,2,2,0,0,1-.63,1.49,3.72,3.72,0,0,1-2.56.69,10.26,10.26,0,0,1-1.49-.09Zm1,3h.87c1,0,1.61-.53,1.61-1.25,0-.87-.66-1.21-1.63-1.21a3.64,3.64,0,0,0-.85.07Zm0,3.55a5.61,5.61,0,0,0,.8,0c1,0,1.91-.36,1.91-1.44s-.87-1.43-1.92-1.43h-.79Z" transform="translate(-10.88 -4.49)"/><path d="M27.39,178.08a.57.57,0,0,1-.61.6.58.58,0,0,1-.59-.6.59.59,0,0,1,.61-.6A.57.57,0,0,1,27.39,178.08Zm-1.08,6.82v-5.32h1v5.32Z" transform="translate(-10.88 -4.49)"/><path d="M32.68,184.71a3.6,3.6,0,0,1-1.53.3,2.53,2.53,0,0,1-2.65-2.71,2.71,2.71,0,0,1,2.86-2.83,3.17,3.17,0,0,1,1.35.28l-.23.74a2.25,2.25,0,0,0-1.12-.25,1.84,1.84,0,0,0-1.88,2,1.82,1.82,0,0,0,1.85,2,2.8,2.8,0,0,0,1.19-.26Z" transform="translate(-10.88 -4.49)"/><path d="M34.37,179.58l1.16,3.15c.12.35.25.77.34,1.09h0c.1-.32.21-.73.35-1.12l1-3.12h1l-1.45,3.8A8.09,8.09,0,0,1,35,186.71a2.73,2.73,0,0,1-1.19.63l-.24-.82a2.57,2.57,0,0,0,.84-.47,2.85,2.85,0,0,0,.82-1.08.79.79,0,0,0,.07-.23.86.86,0,0,0-.06-.25l-2-4.91Z" transform="translate(-10.88 -4.49)"/><path d="M42.88,184.71a3.64,3.64,0,0,1-1.53.3,2.52,2.52,0,0,1-2.65-2.71,2.71,2.71,0,0,1,2.86-2.83,3.09,3.09,0,0,1,1.34.28l-.22.74a2.25,2.25,0,0,0-1.12-.25,1.84,1.84,0,0,0-1.88,2,1.82,1.82,0,0,0,1.85,2,2.71,2.71,0,0,0,1.18-.26Z" transform="translate(-10.88 -4.49)"/><path d="M44,177.09h1v7.81H44Z" transform="translate(-10.88 -4.49)"/><path d="M47.15,182.42A1.7,1.7,0,0,0,49,184.27a3.43,3.43,0,0,0,1.48-.28l.16.69a4.19,4.19,0,0,1-1.77.33,2.47,2.47,0,0,1-2.62-2.68,2.58,2.58,0,0,1,2.5-2.87,2.26,2.26,0,0,1,2.2,2.51,4,4,0,0,1,0,.45Zm2.83-.69a1.37,1.37,0,0,0-1.34-1.58,1.59,1.59,0,0,0-1.48,1.58Z" transform="translate(-10.88 -4.49)"/><path d="M59,179.58c0,.38,0,.81,0,1.46v3.09a3.07,3.07,0,0,1-.76,2.44,2.81,2.81,0,0,1-1.93.63,3.39,3.39,0,0,1-1.77-.44l.24-.73a3,3,0,0,0,1.56.41c1,0,1.72-.51,1.72-1.85V184h0a1.9,1.9,0,0,1-1.7.89,2.38,2.38,0,0,1-2.27-2.59,2.56,2.56,0,0,1,2.4-2.83,1.76,1.76,0,0,1,1.66.92h0l0-.8Zm-1,2.1a1.23,1.23,0,0,0-.06-.44,1.4,1.4,0,0,0-1.35-1c-.93,0-1.59.78-1.59,2,0,1.05.53,1.92,1.58,1.92a1.43,1.43,0,0,0,1.34-1,1.93,1.93,0,0,0,.08-.52Z" transform="translate(-10.88 -4.49)"/><path d="M63.55,184.9l-.08-.67h0a2,2,0,0,1-1.63.8,1.52,1.52,0,0,1-1.63-1.53c0-1.29,1.14-2,3.2-2v-.11a1.1,1.1,0,0,0-1.21-1.24,2.66,2.66,0,0,0-1.38.4l-.22-.64a3.3,3.3,0,0,1,1.74-.47c1.63,0,2,1.11,2,2.18v2a7,7,0,0,0,.09,1.27Zm-.15-2.71c-1,0-2.25.16-2.25,1.2a.86.86,0,0,0,.91.92,1.34,1.34,0,0,0,1.29-.89,1.12,1.12,0,0,0,0-.31Z" transform="translate(-10.88 -4.49)"/><path d="M65.9,181.32c0-.68,0-1.23,0-1.74h.86l0,.91h0a2.09,2.09,0,0,1,1.89-1c1.29,0,2.26,1.09,2.26,2.71,0,1.91-1.17,2.86-2.42,2.86a1.86,1.86,0,0,1-1.64-.84h0v2.89h-1Zm1,1.42a2.34,2.34,0,0,0,0,.39,1.5,1.5,0,0,0,1.45,1.14c1,0,1.62-.84,1.62-2.06s-.56-2-1.58-2a1.55,1.55,0,0,0-1.47,1.2,1.67,1.67,0,0,0-.06.39Z" transform="translate(-10.88 -4.49)"/><path d="M23.3,198.1l-.08-.67h0a2,2,0,0,1-1.63.8,1.52,1.52,0,0,1-1.63-1.53c0-1.29,1.15-2,3.2-2v-.11a1.1,1.1,0,0,0-1.21-1.24,2.66,2.66,0,0,0-1.38.4l-.22-.64a3.37,3.37,0,0,1,1.75-.47c1.63,0,2,1.11,2,2.18v2a7,7,0,0,0,.09,1.27Zm-.14-2.71c-1.06,0-2.26.16-2.26,1.2a.86.86,0,0,0,.91.92,1.32,1.32,0,0,0,1.29-.89,1.13,1.13,0,0,0,.06-.31Z" transform="translate(-10.88 -4.49)"/><path d="M29.45,197.91a3.64,3.64,0,0,1-1.53.3,2.52,2.52,0,0,1-2.65-2.71,2.71,2.71,0,0,1,2.86-2.83,3.26,3.26,0,0,1,1.34.27l-.22.75a2.25,2.25,0,0,0-1.12-.25,1.84,1.84,0,0,0-1.88,2,1.82,1.82,0,0,0,1.84,2,2.73,2.73,0,0,0,1.19-.26Z" transform="translate(-10.88 -4.49)"/><path d="M34.31,197.91a3.6,3.6,0,0,1-1.53.3,2.52,2.52,0,0,1-2.65-2.71A2.71,2.71,0,0,1,33,192.67a3.26,3.26,0,0,1,1.34.27l-.22.75a2.25,2.25,0,0,0-1.12-.25,1.84,1.84,0,0,0-1.88,2,1.82,1.82,0,0,0,1.85,2,2.71,2.71,0,0,0,1.18-.26Z" transform="translate(-10.88 -4.49)"/><path d="M35.92,195.62a1.7,1.7,0,0,0,1.82,1.85,3.46,3.46,0,0,0,1.48-.28l.16.69a4.19,4.19,0,0,1-1.77.33A2.47,2.47,0,0,1,35,195.53a2.58,2.58,0,0,1,2.5-2.87,2.26,2.26,0,0,1,2.2,2.51,4,4,0,0,1,0,.45Zm2.83-.7a1.38,1.38,0,0,0-1.34-1.57,1.59,1.59,0,0,0-1.48,1.57Z" transform="translate(-10.88 -4.49)"/><path d="M40.89,194.52c0-.68,0-1.23,0-1.74h.87l0,.91h0a2.08,2.08,0,0,1,1.89-1c1.29,0,2.26,1.09,2.26,2.71,0,1.91-1.17,2.86-2.42,2.86a1.86,1.86,0,0,1-1.64-.84h0v2.89h-1Zm1,1.42a2.3,2.3,0,0,0,0,.39,1.5,1.5,0,0,0,1.45,1.14c1,0,1.62-.84,1.62-2.06,0-1.07-.56-2-1.59-2a1.54,1.54,0,0,0-1.46,1.2,1.68,1.68,0,0,0-.07.39Z" transform="translate(-10.88 -4.49)"/><path d="M48.31,191.25v1.53H49.7v.74H48.31v2.87c0,.66.19,1,.73,1a2.36,2.36,0,0,0,.56-.06l0,.72a2.25,2.25,0,0,1-.85.13,1.35,1.35,0,0,1-1-.4,2,2,0,0,1-.37-1.39v-2.9h-.83v-.74h.83V191.5Z" transform="translate(-10.88 -4.49)"/><path d="M53.74,198.1l-.08-.67h0a2,2,0,0,1-1.63.8,1.52,1.52,0,0,1-1.63-1.53c0-1.29,1.14-2,3.2-2v-.11a1.1,1.1,0,0,0-1.21-1.24,2.69,2.69,0,0,0-1.39.4l-.22-.64a3.37,3.37,0,0,1,1.75-.47c1.63,0,2,1.11,2,2.18v2a7,7,0,0,0,.09,1.27Zm-.15-2.71c-1.05,0-2.25.16-2.25,1.2a.85.85,0,0,0,.91.92,1.34,1.34,0,0,0,1.29-.89,1.12,1.12,0,0,0,.05-.31Z" transform="translate(-10.88 -4.49)"/><path d="M56.09,194.22c0-.55,0-1-.05-1.44h.86l.06.88h0a1.94,1.94,0,0,1,1.76-1c.74,0,1.88.44,1.88,2.26v3.18h-1V195c0-.86-.32-1.58-1.23-1.58a1.38,1.38,0,0,0-1.3,1,1.53,1.53,0,0,0-.06.45v3.2h-1Z" transform="translate(-10.88 -4.49)"/><path d="M66,197.91a3.64,3.64,0,0,1-1.53.3,2.52,2.52,0,0,1-2.65-2.71,2.71,2.71,0,0,1,2.86-2.83,3.26,3.26,0,0,1,1.34.27l-.22.75a2.25,2.25,0,0,0-1.12-.25,1.84,1.84,0,0,0-1.88,2,1.82,1.82,0,0,0,1.84,2,2.73,2.73,0,0,0,1.19-.26Z" transform="translate(-10.88 -4.49)"/><path d="M67.59,195.62a1.71,1.71,0,0,0,1.83,1.85,3.38,3.38,0,0,0,1.47-.28l.17.69a4.23,4.23,0,0,1-1.77.33,2.47,2.47,0,0,1-2.62-2.68,2.58,2.58,0,0,1,2.5-2.87,2.26,2.26,0,0,1,2.2,2.51,3.52,3.52,0,0,1,0,.45Zm2.84-.7a1.38,1.38,0,0,0-1.34-1.57,1.61,1.61,0,0,0-1.49,1.57Z" transform="translate(-10.88 -4.49)"/><line class="cls-9" x1="135.62" y1="110.51" x2="62.62" y2="179.51"/><line class="cls-9" x1="135.62" y1="141.51" x2="62.62" y2="179.51"/><path class="cls-4" d="M168,140l-.77,2.33h-1l2.51-7.41H170l2.53,7.41h-1l-.79-2.33Zm2.43-.75-.73-2.13c-.16-.49-.27-.93-.38-1.36h0c-.11.44-.23.89-.37,1.35l-.73,2.14Z" transform="translate(-10.88 -4.49)"/><path class="cls-4" d="M177.86,140.87c0,.55,0,1,0,1.45H177l0-.87h0a2,2,0,0,1-1.76,1c-.84,0-1.84-.46-1.84-2.33V137h1v2.94c0,1,.31,1.7,1.19,1.7a1.38,1.38,0,0,0,1.27-.88,1.31,1.31,0,0,0,.09-.5V137h1Z" transform="translate(-10.88 -4.49)"/><path class="cls-4" d="M180.63,135.47V137H182v.73h-1.39v2.87c0,.66.19,1,.73,1a1.86,1.86,0,0,0,.56-.07l0,.73a2.31,2.31,0,0,1-.86.13,1.31,1.31,0,0,1-1-.41,1.93,1.93,0,0,1-.38-1.38v-2.91h-.82V137h.82v-1.28Z" transform="translate(-10.88 -4.49)"/><path class="cls-4" d="M187.86,139.61a2.61,2.61,0,0,1-2.65,2.83,2.53,2.53,0,0,1-2.56-2.74,2.6,2.6,0,0,1,2.64-2.82A2.52,2.52,0,0,1,187.86,139.61Zm-4.23.06c0,1.17.67,2.05,1.62,2.05s1.62-.87,1.62-2.07c0-.9-.45-2.05-1.6-2.05S183.63,138.66,183.63,139.67Z" transform="translate(-10.88 -4.49)"/><path class="cls-4" d="M189.08,138.44c0-.55,0-1-.05-1.44h.85l0,.85h0a1.83,1.83,0,0,1,1.67-1,1.56,1.56,0,0,1,1.51,1.06h0a2.13,2.13,0,0,1,.59-.69,1.83,1.83,0,0,1,1.18-.37c.7,0,1.75.46,1.75,2.31v3.13h-1v-3c0-1-.37-1.64-1.15-1.64a1.26,1.26,0,0,0-1.15.88,1.73,1.73,0,0,0-.07.48v3.29h-1v-3.19c0-.85-.37-1.46-1.11-1.46a1.31,1.31,0,0,0-1.2,1,1.4,1.4,0,0,0-.08.47v3.21h-.94Z" transform="translate(-10.88 -4.49)"/><path class="cls-4" d="M203.07,139.61a2.6,2.6,0,0,1-2.65,2.83,2.53,2.53,0,0,1-2.55-2.74,2.59,2.59,0,0,1,2.64-2.82A2.52,2.52,0,0,1,203.07,139.61Zm-4.22.06c0,1.17.67,2.05,1.61,2.05s1.62-.87,1.62-2.07c0-.9-.45-2.05-1.6-2.05S198.85,138.66,198.85,139.67Z" transform="translate(-10.88 -4.49)"/><path class="cls-4" d="M204.25,142.32c0-.36,0-.9,0-1.37v-6.44h1v3.34h0a2,2,0,0,1,1.81-1c1.33,0,2.26,1.1,2.25,2.71,0,1.91-1.2,2.85-2.39,2.85a1.9,1.9,0,0,1-1.78-1h0l0,.88Zm1-2.13a2,2,0,0,0,0,.35,1.5,1.5,0,0,0,1.45,1.13c1,0,1.62-.82,1.62-2,0-1.07-.55-2-1.58-2a1.55,1.55,0,0,0-1.48,1.18,2.18,2.18,0,0,0-.05.4Z" transform="translate(-10.88 -4.49)"/><path class="cls-4" d="M211.63,135.5a.6.6,0,0,1-1.2,0,.59.59,0,0,1,.6-.61A.58.58,0,0,1,211.63,135.5Zm-1.08,6.82V137h1v5.32Z" transform="translate(-10.88 -4.49)"/><path class="cls-4" d="M213.12,134.51h1v7.81h-1Z" transform="translate(-10.88 -4.49)"/><path class="cls-4" d="M216.26,139.83a1.71,1.71,0,0,0,1.82,1.85,3.57,3.57,0,0,0,1.48-.27l.16.69a4.36,4.36,0,0,1-1.77.33,2.47,2.47,0,0,1-2.62-2.68,2.58,2.58,0,0,1,2.5-2.87,2.25,2.25,0,0,1,2.2,2.5,3.79,3.79,0,0,1,0,.45Zm2.84-.69a1.38,1.38,0,0,0-1.35-1.57,1.61,1.61,0,0,0-1.48,1.57Z" transform="translate(-10.88 -4.49)"/><path class="cls-12" d="M137.07,209.1a9.19,9.19,0,0,1-.15-1.75,3,3,0,0,1,.54-2,1.55,1.55,0,0,1,1.31-.61A1.77,1.77,0,0,1,140.4,206h0a1.91,1.91,0,0,1,1.86-1.53,2,2,0,0,1,1.48.63,3.67,3.67,0,0,1,.7,2.56,12,12,0,0,1-.09,1.49Zm3-1v-.87c0-1-.53-1.61-1.24-1.61-.87,0-1.21.66-1.21,1.63a4.6,4.6,0,0,0,.06.85Zm3.55,0a4.33,4.33,0,0,0,.05-.81c0-1-.37-1.9-1.44-1.9s-1.43.87-1.43,1.92v.79Z" transform="translate(-10.88 -4.49)"/><path class="cls-12" d="M137.57,202.09a.57.57,0,0,1,.59.61.57.57,0,0,1-.59.59.6.6,0,0,1-.61-.61A.58.58,0,0,1,137.57,202.09Zm6.82,1.08h-5.33v-1h5.33Z" transform="translate(-10.88 -4.49)"/><path class="cls-12" d="M144.19,196.8a3.56,3.56,0,0,1,.31,1.53,2.53,2.53,0,0,1-2.72,2.65,2.7,2.7,0,0,1-2.82-2.86,3.32,3.32,0,0,1,.27-1.35l.75.23a2.24,2.24,0,0,0-.26,1.12,1.85,1.85,0,0,0,2,1.88,1.82,1.82,0,0,0,2-1.85,2.64,2.64,0,0,0-.27-1.19Z" transform="translate(-10.88 -4.49)"/><path class="cls-12" d="M139.06,195.11l3.15-1.16c.35-.12.77-.25,1.09-.34v0c-.32-.09-.73-.2-1.11-.34l-3.13-1.05v-1l3.8,1.45a8,8,0,0,1,3.33,1.82,2.62,2.62,0,0,1,.63,1.19l-.81.24a2.45,2.45,0,0,0-.48-.84,2.89,2.89,0,0,0-1.07-.82.83.83,0,0,0-.24-.08,1.09,1.09,0,0,0-.25.07l-4.91,2Z" transform="translate(-10.88 -4.49)"/><path class="cls-12" d="M144.19,186.6a3.6,3.6,0,0,1,.31,1.53,2.53,2.53,0,0,1-2.72,2.65,2.7,2.7,0,0,1-2.82-2.86,3.26,3.26,0,0,1,.27-1.34l.75.22a2.24,2.24,0,0,0-.26,1.12,1.85,1.85,0,0,0,2,1.88,1.82,1.82,0,0,0,2-1.85,2.56,2.56,0,0,0-.27-1.18Z" transform="translate(-10.88 -4.49)"/><path class="cls-12" d="M136.58,185.47v-1h7.81v1Z" transform="translate(-10.88 -4.49)"/><path class="cls-12" d="M141.9,182.33a1.7,1.7,0,0,0,1.85-1.82,3.61,3.61,0,0,0-.27-1.48l.69-.16a4.36,4.36,0,0,1,.33,1.77,2.48,2.48,0,0,1-2.69,2.62,2.59,2.59,0,0,1-2.87-2.5,2.26,2.26,0,0,1,2.51-2.2,4,4,0,0,1,.45,0Zm-.69-2.83a1.37,1.37,0,0,0-1.57,1.34,1.59,1.59,0,0,0,1.57,1.48Z" transform="translate(-10.88 -4.49)"/><circle class="cls-9" cx="139.62" cy="139.51" r="4.5"/><circle class="cls-9" cx="139.62" cy="108.01" r="4.5"/><polygon class="cls-13" points="155.14 164 149.51 164 145.52 167.99 145.52 173.62 149.51 177.61 155.14 177.61 159.13 173.62 159.13 167.99 155.14 164"/><path class="cls-14" d="M157.76,176.38a1.52,1.52,0,0,0,.77.22c.44,0,.7-.24.7-.57s-.18-.49-.63-.67-.88-.47-.88-1a1,1,0,0,1,1.08-.9,1.59,1.59,0,0,1,.74.16l-.12.35a1.31,1.31,0,0,0-.63-.16c-.46,0-.63.28-.63.5s.2.47.66.65.85.49.85,1-.38,1-1.17,1a1.72,1.72,0,0,1-.85-.21Z" transform="translate(-10.88 -4.49)"/><path class="cls-14" d="M160.9,173.93h-1v-.37h2.48v.37h-1v3h-.43Z" transform="translate(-10.88 -4.49)"/><path class="cls-14" d="M165.45,175.2A1.57,1.57,0,0,1,163.9,177a1.54,1.54,0,0,1-1.5-1.7,1.58,1.58,0,0,1,1.55-1.75A1.52,1.52,0,0,1,165.45,175.2Zm-2.59.05c0,.72.38,1.36,1.06,1.36S165,176,165,175.22s-.34-1.36-1.06-1.36S162.86,174.52,162.86,175.25Z" transform="translate(-10.88 -4.49)"/><path class="cls-14" d="M166,173.6a5.69,5.69,0,0,1,.83-.06,1.44,1.44,0,0,1,.94.27.92.92,0,0,1,.29.7,1,1,0,0,1-.26.72,1.4,1.4,0,0,1-1,.36,1.27,1.27,0,0,1-.35,0v1.34H166Zm.43,1.61a1.23,1.23,0,0,0,.36,0c.52,0,.84-.26.84-.72s-.32-.65-.79-.65a1.94,1.94,0,0,0-.41,0Z" transform="translate(-10.88 -4.49)"/><polygon class="cls-13" points="66.69 74.23 61.06 74.23 57.08 78.21 57.08 83.84 61.06 87.83 66.69 87.83 70.68 83.84 70.68 78.21 66.69 74.23"/><path class="cls-14" d="M69.31,86.6a1.56,1.56,0,0,0,.78.22c.44,0,.7-.24.7-.57s-.18-.49-.63-.67-.89-.47-.89-1a1,1,0,0,1,1.08-.9,1.56,1.56,0,0,1,.74.16l-.12.35a1.31,1.31,0,0,0-.63-.16c-.46,0-.63.28-.63.5s.2.47.66.65.86.49.86,1-.39,1-1.17,1A1.73,1.73,0,0,1,69.2,87Z" transform="translate(-10.88 -4.49)"/><path class="cls-14" d="M72.45,84.15h-1v-.37h2.48v.37h-1v3h-.44Z" transform="translate(-10.88 -4.49)"/><path class="cls-14" d="M77,85.42a1.57,1.57,0,0,1-1.55,1.76,1.54,1.54,0,0,1-1.5-1.7,1.58,1.58,0,0,1,1.55-1.75A1.52,1.52,0,0,1,77,85.42Zm-2.59,0c0,.72.39,1.36,1.07,1.36s1.07-.63,1.07-1.39-.35-1.36-1.07-1.36S74.41,84.74,74.41,85.47Z" transform="translate(-10.88 -4.49)"/><path class="cls-14" d="M77.56,83.82a5.69,5.69,0,0,1,.83-.06,1.42,1.42,0,0,1,.94.27.92.92,0,0,1,.29.7,1,1,0,0,1-.26.72,1.4,1.4,0,0,1-1,.36,1.89,1.89,0,0,1-.35,0v1.33h-.43ZM78,85.43a1.28,1.28,0,0,0,.36,0c.52,0,.84-.26.84-.72s-.31-.65-.79-.65a1.94,1.94,0,0,0-.41,0Z" transform="translate(-10.88 -4.49)"/></svg>